<svg width="266" height="227" viewBox="0 0 266 227" fill="none" xmlns="http://www.w3.org/2000/svg">
<path d="M32.0563 53.2341C37.5079 35.2799 38.6406 21.1546 53.2207 8.30615C67.8007 -4.54235 44.7089 137.33 44.7089 137.33C44.7089 137.33 58.9354 50.9666 96.6995 13.1445C143.169 -33.3963 96.6995 162.674 96.6995 162.674C136.915 133.801 166.174 117.055 185.498 63.6021C204.822 10.1493 161.803 31.5765 154.441 63.6021C147.08 95.6277 96.6995 270.962 105.441 208.754C114.183 146.546 111.371 113.286 1 103.922C1 103.922 331.704 41.8605 246 85.0293C228.653 93.767 218.472 97.9473 199.991 103.922" stroke="#F0F0F0" stroke-width="10"/>
</svg>
