<svg width="85" height="74" viewBox="0 0 85 74" fill="none" xmlns="http://www.w3.org/2000/svg">
<path d="M10.7057 17.87C12.4094 12.2178 12.7635 7.77091 17.32 3.72601C21.8766 -0.318889 14.6599 44.3447 14.6599 44.3447C14.6599 44.3447 19.106 17.1561 30.908 5.2492C45.4307 -9.40253 30.908 52.3233 30.908 52.3233C43.476 43.2338 52.6201 37.9617 58.6592 21.134C64.6983 4.30627 51.2541 11.0519 48.9535 21.134C46.6529 31.2161 30.908 86.414 33.64 66.83C36.372 47.246 35.4932 36.7753 1 33.8273C1 33.8273 104.352 14.2894 77.5674 27.8796C72.146 30.6304 68.9645 31.9464 63.1885 33.8273" stroke="#287442" stroke-width="5"/>
</svg>
