<svg width="84" height="72" viewBox="0 0 84 72" fill="none" xmlns="http://www.w3.org/2000/svg">
<path d="M10.7057 16.87C12.4094 11.2178 12.7635 6.77091 17.32 2.72601C21.8766 -1.31889 14.6599 43.3447 14.6599 43.3447C14.6599 43.3447 19.106 16.1561 30.908 4.2492C45.4307 -10.4025 30.908 51.3233 30.908 51.3233C43.476 42.2338 52.6201 36.9617 58.6592 20.134C64.6983 3.30627 51.2541 10.0519 48.9535 20.134C46.6529 30.2161 30.908 85.414 33.64 65.83C36.372 46.246 35.4932 35.7753 1 32.8273C1 32.8273 104.352 13.2894 77.5674 26.8796C72.146 29.6304 68.9645 30.9464 63.1885 32.8273" stroke="#287442" stroke-width="4"/>
</svg>
