<?xml version="1.0" encoding="utf-8" standalone="no"?>
<!-- Creator: Esri ArcMap 10.3.0.4322 -->
<!DOCTYPE svg PUBLIC "-//W3C//DTD SVG 1.1//EN"  "http://www.w3.org/Graphics/SVG/1.1/DTD/svg11.dtd">
<svg width="999.75118pt" height="999.75118pt" viewBox="0 0 999.75118 999.75118" enable-background="new 0 0 999.75118 999.75118"
	version="1.1" xmlns="http://www.w3.org/2000/svg" xmlns:xlink="http://www.w3.org/1999/xlink" >
	<g id="Kabupaten">
		<g id="Laut">
			<clipPath id="SVG_CP_1">
				<path d="M0,999.75118L0,0L999.75118,0L999.75118,999.75118L0,999.75118z"/>
			</clipPath>
			<path clip-path="url(#SVG_CP_1)" fill="#C6ECFF" fill-rule="evenodd" stroke="none" d="M-49.91447,1049.67112L-49.91447,-49.91577
				L1049.64372,-49.91577L1049.64372,1049.67112L-49.91447,1049.67112z"/>
		</g>
		<g id="Provinsi">
			<path clip-path="url(#SVG_CP_1)" fill="#F6E1B9" fill-rule="evenodd" stroke="#646464" stroke-width="1.91979" stroke-miterlimit="10" stroke-linecap="round" stroke-linejoin="round" d="
				M-49.91447,1049.67112L-49.91447,-49.91577L1049.64372,-49.91577L1049.64372,1049.67112L-49.91447,1049.67112z"/>
		</g>
		<g id="Kecamatan">
			<path clip-path="url(#SVG_CP_1)" fill="#FEFEE9" fill-rule="evenodd" stroke="#646464" stroke-width="0.47995" stroke-miterlimit="10" stroke-linecap="round" stroke-linejoin="round" d="
				M342.44206,645.06538L346.04167,646.0253L349.40129,645.54534L353.24087,645.78532L356.84047,646.74524L358.28031,648.90505L
				359.00023,652.26477L359.00023,654.90455L358.28031,658.74422L358.28031,662.34392L360.68004,663.78379L363.07978,664.50373L
				365.47951,665.70363L369.07911,667.14351L367.15933,672.90302L367.3993,672.90302L371.23887,674.3429L376.75826,676.26274L381.55773,677.9426
				L380.83781,680.82235L383.23754,681.30231L387.31709,682.26223L388.99691,680.34239L392.11656,676.98268L394.27632,674.3429L
				397.87592,670.98318L399.79571,669.06335L402.43542,666.66355L404.59518,664.50373L408.67473,668.58339L411.31443,670.98318L
				414.43409,674.58288L417.0738,677.70262L418.27366,679.62245L420.43342,682.50221L421.15334,685.86192L421.39332,687.78176L421.39332,691.14148
				L426.67273,692.58136L428.35255,693.30129L431.71217,694.26121L434.59186,695.22113L438.19146,696.18105L439.15135,693.54127
				L441.07114,686.34188L442.51098,682.26223L444.19079,677.22266L445.87061,672.90302L448.03037,672.90302L451.86994,672.66304
				L456.18946,672.18308L459.54909,671.22316L463.14869,670.50323L467.46821,669.54331L470.34789,669.06335L474.66742,668.10343
				L479.94683,667.62347L482.58654,666.90353L487.14603,666.18359L491.70553,664.98369L496.98494,664.26375L501.78441,663.30383
				L505.14404,662.5839L510.42346,661.62398L515.70287,660.66406L518.34258,659.94412L523.14205,658.9842L529.8613,657.54432L534.4208,656.5844
				L543.53979,654.18461L548.09928,653.22469L558.41814,650.58491L561.05785,650.82489L569.45692,652.98471L574.25638,655.14453
				L575.45625,655.62448L575.69622,655.38451L577.37604,656.82438L579.77577,659.22418L581.93553,662.34392L584.33527,665.46365
				L588.17484,671.70312L590.57458,675.06284L595.61402,683.70211L596.33394,683.46213L598.25373,682.74219L600.17351,682.26223
				L602.33327,681.78227L605.21295,681.30231L607.13274,681.06233L610.01242,680.82235L613.37205,680.58237L613.13208,678.90251
				L612.65213,676.02276L611.93221,670.7432L611.93221,668.82337L611.45226,664.98369L610.73234,662.10394L613.852,661.14402L616.25173,660.42408
				L618.65147,659.70414L620.33128,658.9842L619.61136,657.7843L618.89144,656.5844L618.41149,655.86446L617.21163,655.14453L616.01176,654.42459
				L615.05186,653.94463L614.09197,653.70465L613.13208,653.46467L612.41216,653.22469L612.17218,652.74473L612.17218,651.54483
				L614.33194,651.54483L616.97165,651.78481L618.65147,651.54483L621.29117,651.54483L623.21096,651.30485L625.37072,651.06487
				L626.09064,651.06487L626.09064,652.26477L626.81056,652.74473L627.53048,653.22469L628.2504,653.22469L629.69024,653.46467L
				631.13008,654.18461L632.8099,655.62448L634.72968,660.1841L635.20963,661.86396L635.92955,663.30383L637.12942,664.98369L637.84934,666.66355
				L637.84934,667.86345L639.04921,669.54331L640.48905,669.78329L641.92889,670.50323L643.12875,672.18308L643.84867,673.86294
				L644.32862,675.5428L644.80857,676.50272L646.48838,676.7427L647.92822,676.50272L649.84801,676.02276L651.52782,675.5428L652.72769,675.30282
				L654.16753,675.5428L655.60737,676.98268L656.80724,678.18257L658.24708,679.14249L658.967,679.62245L659.92689,679.62245L660.88679,679.14249
				L661.60671,679.14249L662.5666,679.14249L664.00644,679.62245L665.20631,679.86243L666.64615,680.58237L668.56594,681.30231L
				670.00578,682.26223L671.68559,683.22215L672.40551,684.18207L672.64548,685.14199L671.68559,686.34188L670.7257,688.02174L670.48572,689.46162
				L670.48572,691.14148L671.20564,691.86142L672.40551,692.82134L674.3253,693.30129L676.24509,694.02123L677.20498,694.02123L
				678.40485,693.06131L679.36474,691.86142L680.32463,691.62144L681.28453,692.1014L682.24442,693.06131L682.96434,694.50119L683.44429,695.94107
				L682.96434,697.62093L682.48439,698.58085L681.5245,699.54077L680.56461,700.02073L679.12477,700.98064L677.20498,702.18054L
				675.76514,702.90048L674.08532,704.10038L673.3654,704.58034L673.60538,705.54026L674.56527,705.78024L676.48506,706.74016L677.9249,708.65999
				L679.12477,710.57983L679.36474,712.73965L679.36474,714.65949L678.88479,717.05928L678.64482,718.0192L677.9249,718.25918L677.20498,717.77922
				L676.96501,717.77922L676.48506,718.49916L675.52517,719.69906L674.3253,721.13894L673.60538,722.09886L672.88546,723.77871L
				671.92556,724.49865L670.24575,724.25867L669.52583,724.49865L668.32596,724.97861L666.88612,725.45857L666.1662,725.93853L665.44628,726.89845
				L665.20631,728.81829L664.96633,730.25817L664.72636,731.45806L664.24641,731.93802L662.5666,732.65796L660.88679,733.61788L
				658.967,735.29774L658.00711,736.49764L658.00711,737.69754L658.72703,739.61737L659.68692,740.33731L659.92689,741.29723L659.68692,742.73711
				L659.20697,744.65695L658.24708,746.09682L657.76713,747.5367L658.00711,748.97658L658.967,749.69652L660.64681,750.17648L662.32663,750.41646
				L663.76647,750.65644L665.68626,750.89642L666.88612,751.61636L668.08599,753.53619L668.80591,754.49611L670.24575,756.41595
				L673.3654,752.09632L676.00511,748.01666L678.64482,742.73711L680.08466,739.61737L682.96434,733.61788L684.88413,730.49814L
				687.52384,724.73863L688.48373,722.09886L688.96368,720.419L688.96368,715.13945L688.96368,712.01971L688.7237,706.50018L688.96368,703.38044
				L689.44362,700.26071L690.40352,697.38095L690.40352,693.54127L689.92357,688.02174L688.7237,684.42205L686.80392,677.70262L
				685.36408,673.86294L684.40418,670.26325L696.40285,666.90353L696.64283,667.38349L699.28253,671.70312L705.0419,676.50272L705.76182,676.98268
				L707.20166,678.42255L713.20099,685.14199L719.20033,692.82134L718.96035,696.18105L717.28054,698.34087L710.56128,703.14046
				L707.6816,705.30028L707.20166,705.54026L705.0419,706.74016L700.4824,708.65999L699.04256,710.57983L699.04256,712.25969L700.4824,714.41951
				L701.68227,716.09936L702.64216,718.49916L710.80126,728.57831L711.76115,732.41798L711.76115,734.5778L708.16155,740.33731L
				707.44163,741.77719L706.72171,742.25715L705.28187,744.41697L704.80192,747.29672L704.56195,748.01666L704.56195,748.25664L
				704.80192,748.49662L705.28187,749.69652L706.24176,751.85634L707.92158,752.3363L708.6415,753.05623L721.12011,758.57577L722.31998,760.97556
				L721.84003,763.85532L717.76049,769.85481L716.80059,771.29469L715.8407,772.01463L713.20099,775.8543L713.20099,776.33426L712.48107,777.0542
				L712.2411,778.73406L714.40086,784.73355L716.80059,789.53315L716.80059,789.77313L716.08067,792.17292L714.16088,795.29266L
				710.56128,796.73254L707.44163,797.45248L703.12211,797.45248L699.04256,797.69246L696.16288,799.37231L693.2832,802.97201L692.80325,803.69195
				L690.64349,806.09174L685.84402,811.13132L683.20431,813.29113L679.84469,815.69093L679.36474,816.17089L676.96501,818.33071
				L676.00511,820.97048L675.52517,821.69042L675.52517,822.41036L675.52517,822.65034L674.80524,827.68992L674.80524,831.76957
				L674.3253,838.72898L675.52517,844.96845L676.00511,846.64831L676.72503,848.80813L677.44495,850.24801L677.68493,851.20792L
				678.64482,853.12776L680.32463,856.72746L682.96434,861.52705L684.40418,864.40681L687.28386,867.76652L689.92357,869.44638L
				691.12344,870.4063L696.8828,873.28605L701.92224,876.40579L704.32197,878.32563L705.28187,880.00549L706.48174,882.1653L707.44163,885.04506
				L708.6415,890.80457L709.60139,893.68433L711.52118,896.3241L712.96102,898.00396L714.88081,899.44384L717.04057,900.16378L722.55995,902.3236
				L727.35942,904.72339L729.51918,906.64323L729.75916,908.08311L729.27921,911.92278L727.35942,915.52248L724.95969,914.32258
				L724.71972,913.84262L723.51985,913.36266L723.51985,911.92278L722.08001,908.80305L720.64017,906.64323L720.40019,906.64323
				L720.16022,906.40325L718.72038,905.44333L709.84136,902.3236L706.00179,900.16378L700.24243,901.60366L699.28253,901.84364L
				693.2832,901.84364L693.2832,902.08362L692.56328,902.08362L688.96368,902.08362L680.08466,902.3236L678.16487,902.3236L677.68493,902.3236
				L671.68559,902.56358L664.00644,903.52349L661.84668,904.00345L656.32729,904.00345L653.20764,904.00345L649.60804,902.08362
				L647.68825,900.64374L639.52915,895.36418L636.64947,894.88423L635.68958,894.40427L629.93022,893.44435L623.93088,892.48443
				L623.45093,892.48443L619.13141,891.76449L618.41149,891.76449L617.21163,891.28453L616.97165,891.28453L615.05186,891.04455
				L613.852,890.80457L612.65213,890.32461L608.57258,889.36469L603.77311,888.88473L596.57391,889.12471L589.85466,888.40477L585.53513,887.92481
				L576.89609,886.72492L572.81654,886.24496L572.09662,886.00498L564.89742,884.80508L563.21761,884.5651L556.0184,884.5651L554.81854,884.80508
				L553.3787,884.5651L549.29915,885.04506L548.57923,885.04506L548.8192,886.9649L550.01907,891.04455L550.25904,897.04404L549.29915,897.76398
				L545.93952,898.96388L539.94019,901.60366L531.78109,904.96337L529.14138,905.92329L512.58322,912.16276L511.62332,912.64272
				L509.46356,912.64272L509.94351,911.92278L513.30314,906.64323L517.62266,900.88372L522.18215,896.3241L525.54178,891.76449L
				513.30314,887.92481L506.58388,883.3652L499.62465,880.24546L497.46489,878.56561L500.82452,873.52603L504.66409,868.24648L507.06383,863.20691
				L487.38601,863.20691L480.1868,863.20691L471.54776,884.32512L471.30779,884.80508L468.66808,892.00447L465.30845,891.04455L
				461.22891,889.36469L458.82917,896.56408L458.10925,899.44384L455.70952,906.16327L454.0297,906.88321L451.86994,907.12319L449.23023,914.32258
				L445.63063,922.48189L443.2309,930.88118L445.15069,931.12116L449.23023,932.32106L448.51031,935.68077L447.79039,939.04049L
				444.91071,940.24038L432.4321,938.56053L422.83316,936.40071L413.71417,932.80101L412.75428,932.32106L430.51231,903.76347L425.47287,898.24394
				L420.91337,892.72441L418.99358,888.64475L414.91404,885.28504L414.67406,885.28504L412.99425,884.32512L408.9147,880.72542L
				403.39531,875.44587L399.07579,872.32614L396.43608,870.4063L396.19611,870.16632L393.79638,868.0065L379.158,854.08768L374.83848,858.40731
				L366.91935,865.84668L358.76026,873.76601L347.00156,883.3652L339.08244,890.80457L336.6827,893.44435L335.00289,895.12421L334.76292,896.08412
				L327.32374,892.48443L315.56504,885.52502L309.80568,882.1653L304.04632,879.04557L303.3264,878.08565L302.12653,876.88575L298.7669,871.6062
				L296.36717,863.68687L294.68735,858.64729L294.20741,857.68738L293.96743,857.20742L293.48749,856.00752L291.32773,851.68788
				L290.36783,849.52807L290.12786,848.80813L287.24818,845.20843L287.00821,844.96845L286.28829,844.24851L284.3685,842.56866L
				283.16863,841.60874L281.48882,840.16886L280.04898,838.96896L277.40927,835.84922L275.72945,833.92939L275.00953,832.00955L
				275.24951,827.92989L276.2094,825.29012L277.1693,823.85024L278.60914,821.9304L282.44871,819.05065L286.04831,816.65085L286.76823,816.17089
				L288.44805,814.01107L289.16797,811.61128L289.40794,809.69144L289.16797,805.61178L289.16797,805.13183L289.64791,796.73254
				L289.64791,796.0126L291.32773,790.49306L291.32773,789.77313L293.48749,783.53365L293.96743,782.33376L294.20741,781.61382L
				295.1673,779.93396L296.84712,776.57424L297.56704,774.65441L301.64658,766.97506L303.56637,764.57526L303.80634,764.33528L306.926,761.93548
				L312.20541,758.09581L320.12454,753.53619L324.20408,751.37638L326.36385,749.45654L326.60382,749.21656L327.56371,746.3368L
				318.44472,750.17648L317.24486,750.65644L316.52494,750.65644L311.72547,750.65644L311.24552,750.65644L302.84645,750.89642L
				291.08775,751.85634L287.24818,750.65644L284.60847,748.25664L280.52892,743.45705L278.60914,739.85735L278.12919,738.89743L
				276.2094,734.33782L275.48948,732.89794L275.00953,732.41798L271.64991,728.81829L271.40993,728.57831L270.21007,726.65847L269.97009,726.17851
				L270.45004,723.77871L272.36983,720.17902L273.32972,719.45908L276.92932,717.29926L281.72879,714.41951L286.76823,711.77973
				L291.80767,709.13995L292.52759,708.89997L297.56704,706.50018L304.04632,700.98064L305.96611,698.10089L310.76557,690.42154
				L312.92533,687.3018L316.76491,679.86243L318.6847,676.26274L319.40462,672.66304L322.04432,661.14402L323.48416,653.94463L323.72414,652.74473
				L325.16398,649.62499L328.04366,644.8254L331.16331,639.78583L334.28297,641.46568L337.40262,642.66558L342.44206,645.06538z
				"/>
			<path clip-path="url(#SVG_CP_1)" fill="#FEFEE9" fill-rule="evenodd" stroke="#646464" stroke-width="0.47995" stroke-miterlimit="10" stroke-linecap="round" stroke-linejoin="round" d="
				M462.42877,410.12527L468.18813,411.32517L475.14736,409.64531L478.74696,406.76556L481.86662,403.16586L481.86662,404.12578
				L481.86662,407.96546L482.34657,410.12527L483.54643,414.92487L484.50633,418.28458L485.46622,420.92436L484.98627,421.16434
				L482.10659,423.08418L478.50699,425.48397L476.10726,428.84369L474.90739,432.44338L477.30712,433.4033L481.86662,435.56312L
				484.7463,437.72294L487.62598,440.60269L491.22558,443.96241L493.62532,446.60218L494.82518,447.5621L499.62465,452.3617L502.50433,455.00147
				L507.3038,459.32111L511.38335,455.24145L518.1026,448.04206L521.70221,444.68235L527.94151,438.2029L529.14138,439.40279L531.06117,441.32263
				L533.70088,443.72243L537.78042,447.32212L538.98029,447.80208L543.29981,451.1618L546.41947,454.52151L546.89941,461.24094L
				549.05918,462.9208L552.89875,466.76048L559.85798,474.19985L563.21761,478.03952L567.05718,483.31908L569.21694,486.91877L569.69689,487.63871
				L571.61668,488.83861L572.09662,489.31857L573.29649,487.87869L575.69622,487.15875L575.69622,489.79853L575.9362,492.4383L577.61601,496.75794
				L578.09596,498.91775L578.09596,500.35763L578.33593,502.03749L579.29583,503.23739L580.73567,504.19731L582.17551,506.35712
				L582.17551,508.75692L582.41548,510.67676L582.89543,512.83658L583.37537,516.19629L584.09529,520.03597L584.81521,522.19578
				L586.25505,525.31552L588.41482,528.43525L590.3346,530.35509L592.01442,531.07503L595.37404,533.47483L598.25373,535.39467L
				601.37338,536.59456L603.77311,538.03444L605.21295,540.43424L605.6929,543.31399L606.65279,545.71379L608.09264,547.63363L608.33261,550.27341
				L607.85266,553.15316L608.09264,555.55296L608.33261,556.99284L609.53248,558.67269L610.73234,560.11257L612.8921,561.55245L
				615.05186,561.79243L617.21163,561.31247L618.65147,561.55245L620.81123,562.75235L622.01109,564.67219L621.77112,568.75184L
				622.49104,571.15164L623.45093,574.99131L624.41083,583.15062L625.61069,585.55042L627.05054,587.71024L628.49038,591.30993L
				628.49038,593.22977L628.73035,595.62957L630.89011,596.10952L632.8099,597.78938L635.20963,598.98928L636.88945,601.1491L638.56926,603.06894
				L639.28918,604.50881L640.0091,606.18867L640.96899,607.62855L642.88878,609.06843L645.04854,610.50831L648.1682,613.38806L649.84801,614.58796
				L650.56793,618.42763L652.96766,620.34747L656.80724,621.54737L658.72703,623.46721L662.32663,626.34696L664.48639,627.30688
				L665.68626,626.58694L667.60604,625.62703L671.20564,623.70719L674.08532,622.26731L676.00511,621.30739L676.96501,618.66761
				L679.12477,616.74778L681.04455,615.78786L682.72437,616.98776L687.04389,619.62753L687.04389,619.86751L687.28386,621.06741
				L686.084,625.867L684.40418,630.42662L685.36408,632.82642L686.32397,633.0664L689.44362,635.22621L693.76314,635.94615L699.52251,636.18613
				L701.68227,636.66609L705.76182,638.58593L707.20166,640.26579L708.16155,641.46568L709.36142,644.34544L709.36142,646.74524
				L707.6816,649.38501L702.88213,653.70465L700.24243,655.38451L698.08267,657.54432L696.64283,658.74422L694.96301,661.384L694.72304,661.86396
				L695.20299,664.74371L696.40285,666.90353L684.40418,670.26325L685.36408,673.86294L686.80392,677.70262L688.7237,684.42205L
				689.92357,688.02174L690.40352,693.54127L690.40352,697.38095L689.44362,700.26071L688.96368,703.38044L688.7237,706.50018L688.96368,712.01971
				L688.96368,715.13945L688.96368,720.419L688.48373,722.09886L687.52384,724.73863L684.88413,730.49814L682.96434,733.61788L680.08466,739.61737
				L678.64482,742.73711L676.00511,748.01666L673.3654,752.09632L670.24575,756.41595L668.80591,754.49611L668.08599,753.53619L
				666.88612,751.61636L665.68626,750.89642L663.76647,750.65644L662.32663,750.41646L660.64681,750.17648L658.967,749.69652L658.00711,748.97658
				L657.76713,747.5367L658.24708,746.09682L659.20697,744.65695L659.68692,742.73711L659.92689,741.29723L659.68692,740.33731L
				658.72703,739.61737L658.00711,737.69754L658.00711,736.49764L658.967,735.29774L660.88679,733.61788L662.5666,732.65796L664.24641,731.93802
				L664.72636,731.45806L664.96633,730.25817L665.20631,728.81829L665.44628,726.89845L666.1662,725.93853L666.88612,725.45857L
				668.32596,724.97861L669.52583,724.49865L670.24575,724.25867L671.92556,724.49865L672.88546,723.77871L673.60538,722.09886L
				674.3253,721.13894L675.52517,719.69906L676.48506,718.49916L676.96501,717.77922L677.20498,717.77922L677.9249,718.25918L678.64482,718.0192
				L678.88479,717.05928L679.36474,714.65949L679.36474,712.73965L679.12477,710.57983L677.9249,708.65999L676.48506,706.74016L
				674.56527,705.78024L673.60538,705.54026L673.3654,704.58034L674.08532,704.10038L675.76514,702.90048L677.20498,702.18054L679.12477,700.98064
				L680.56461,700.02073L681.5245,699.54077L682.48439,698.58085L682.96434,697.62093L683.44429,695.94107L682.96434,694.50119L
				682.24442,693.06131L681.28453,692.1014L680.32463,691.62144L679.36474,691.86142L678.40485,693.06131L677.20498,694.02123L676.24509,694.02123
				L674.3253,693.30129L672.40551,692.82134L671.20564,691.86142L670.48572,691.14148L670.48572,689.46162L670.7257,688.02174L671.68559,686.34188
				L672.64548,685.14199L672.40551,684.18207L671.68559,683.22215L670.00578,682.26223L668.56594,681.30231L666.64615,680.58237
				L665.20631,679.86243L664.00644,679.62245L662.5666,679.14249L661.60671,679.14249L660.88679,679.14249L659.92689,679.62245L
				658.967,679.62245L658.24708,679.14249L656.80724,678.18257L655.60737,676.98268L654.16753,675.5428L652.72769,675.30282L651.52782,675.5428
				L649.84801,676.02276L647.92822,676.50272L646.48838,676.7427L644.80857,676.50272L644.32862,675.5428L643.84867,673.86294L643.12875,672.18308
				L641.92889,670.50323L640.48905,669.78329L639.04921,669.54331L637.84934,667.86345L637.84934,666.66355L637.12942,664.98369
				L635.92955,663.30383L635.20963,661.86396L634.72968,660.1841L632.8099,655.62448L631.13008,654.18461L629.69024,653.46467L628.2504,653.22469
				L627.53048,653.22469L626.81056,652.74473L626.09064,652.26477L626.09064,651.06487L625.37072,651.06487L623.21096,651.30485
				L621.29117,651.54483L618.65147,651.54483L616.97165,651.78481L614.33194,651.54483L612.17218,651.54483L612.17218,652.74473
				L612.41216,653.22469L613.13208,653.46467L614.09197,653.70465L615.05186,653.94463L616.01176,654.42459L617.21163,655.14453
				L618.41149,655.86446L618.89144,656.5844L619.61136,657.7843L620.33128,658.9842L618.65147,659.70414L616.25173,660.42408L613.852,661.14402
				L610.73234,662.10394L611.45226,664.98369L611.93221,668.82337L611.93221,670.7432L612.65213,676.02276L613.13208,678.90251L
				613.37205,680.58237L610.01242,680.82235L607.13274,681.06233L605.21295,681.30231L602.33327,681.78227L600.17351,682.26223L
				598.25373,682.74219L596.33394,683.46213L595.61402,683.70211L590.57458,675.06284L588.17484,671.70312L584.33527,665.46365L
				581.93553,662.34392L579.77577,659.22418L577.37604,656.82438L575.69622,655.38451L575.45625,655.62448L574.25638,655.14453L
				569.45692,652.98471L561.05785,650.82489L558.41814,650.58491L548.09928,653.22469L543.53979,654.18461L534.4208,656.5844L529.8613,657.54432
				L523.14205,658.9842L518.34258,659.94412L515.70287,660.66406L510.42346,661.62398L505.14404,662.5839L501.78441,663.30383L496.98494,664.26375
				L491.70553,664.98369L487.14603,666.18359L482.58654,666.90353L479.94683,667.62347L474.66742,668.10343L470.34789,669.06335
				L467.46821,669.54331L463.14869,670.50323L459.54909,671.22316L456.18946,672.18308L451.86994,672.66304L448.03037,672.90302
				L445.87061,672.90302L444.19079,677.22266L442.51098,682.26223L441.07114,686.34188L439.15135,693.54127L438.19146,696.18105
				L434.59186,695.22113L431.71217,694.26121L428.35255,693.30129L426.67273,692.58136L421.39332,691.14148L421.39332,687.78176
				L421.15334,685.86192L420.43342,682.50221L418.27366,679.62245L417.0738,677.70262L414.43409,674.58288L411.31443,670.98318L
				408.67473,668.58339L404.59518,664.50373L402.43542,666.66355L399.79571,669.06335L397.87592,670.98318L394.27632,674.3429L392.11656,676.98268
				L388.99691,680.34239L387.31709,682.26223L383.23754,681.30231L380.83781,680.82235L381.55773,677.9426L376.75826,676.26274L
				371.23887,674.3429L367.3993,672.90302L367.15933,672.90302L369.07911,667.14351L365.47951,665.70363L363.07978,664.50373L360.68004,663.78379
				L358.28031,662.34392L358.28031,658.74422L359.00023,654.90455L359.00023,652.26477L358.28031,648.90505L356.84047,646.74524
				L353.24087,645.78532L349.40129,645.54534L346.04167,646.0253L342.44206,645.06538L337.40262,642.66558L334.28297,641.46568L
				331.16331,639.78583L332.12321,638.10597L334.28297,635.70617L339.56238,627.78684L342.68204,624.42713L344.8418,619.86751L347.24153,615.78786
				L347.24153,613.38806L345.08177,611.94818L344.8418,611.94818L344.8418,611.7082L344.60183,609.54839L342.92201,606.42865L336.6827,601.62906
				L331.40329,595.62957L327.32374,588.67015L327.08377,586.03038L326.84379,579.79091L326.84379,571.87158L330.20342,552.6732L
				331.16331,551.23332L332.12321,549.79345L332.84313,549.79345L338.12254,550.27341L344.12188,550.75337L347.96145,550.51339L
				353.72081,550.99334L355.40063,549.79345L356.84047,547.87361L358.04034,545.47381L358.28031,545.47381L359.72015,543.07402L
				361.87991,538.99436L367.15933,530.35509L370.27898,526.7554L371.95879,524.11562L374.35853,520.75591L375.31842,517.87615L375.79837,513.07656
				L375.31842,510.91674L373.15866,509.47686L370.51895,507.797L369.07911,506.35712L361.63994,500.59761L360.2001,498.19782L360.2001,497.95784
				L360.2001,495.31806L360.44007,492.67828L360.92002,488.59863L361.63994,484.51897L364.51962,478.99944L366.19943,474.67981L
				369.79903,468.44033L374.83848,460.52101L376.99824,456.68133L380.11789,450.20188L381.7977,444.92233L382.7576,442.76251L382.99757,441.32263
				L383.71749,439.16281L385.87725,431.0035L387.79704,421.6443L389.9568,412.76505L390.67672,409.88529L392.35653,402.92588L393.5564,398.36627
				L393.31643,393.3267L393.31643,389.96698L393.31643,388.28712L394.99624,378.20798L397.156,372.44846L400.51563,371.00859L400.7556,369.80869
				L400.03568,367.16891L399.79571,366.20899L399.79571,365.96901L399.31576,361.88936L401.7155,359.72954L407.71483,356.6098L410.83449,356.12984
				L412.75428,356.12984L416.1139,356.12984L418.75361,357.32974L423.07313,359.0096L426.91271,361.16942L430.99225,362.84928L434.35188,364.76911
				L436.27167,367.16891L437.23156,370.04867L438.19146,374.3683L440.35122,378.92791L442.51098,383.48753L444.91071,388.28712L
				449.95015,394.04663L454.0297,398.36627L454.50965,402.20594L457.6293,406.04562L462.42877,410.12527z"/>
			<path clip-path="url(#SVG_CP_1)" fill="#FEFEE9" fill-rule="evenodd" stroke="#646464" stroke-width="0.47995" stroke-miterlimit="10" stroke-linecap="round" stroke-linejoin="round" d="
				M573.29649,59.75494L584.09529,62.6347L586.735,63.35464L586.97497,63.59462L588.65479,64.07457L593.9342,65.99441L594.8941,66.23439
				L598.4937,66.95433L604.97298,68.63419L604.49303,70.31405L602.57325,74.63368L600.65346,79.19329L598.97365,84.23287L597.29383,87.3526
				L597.77378,87.83256L596.33394,97.67173L596.09396,98.87163L595.85399,100.55149L594.65412,104.87112L594.17418,106.07102L593.21428,110.87061
				L593.69423,114.23033L595.85399,121.90968L597.53381,124.78943L600.41349,128.14915L604.73301,132.94874L607.13274,134.86858
				L625.13075,148.06746L625.85067,148.54742L640.72902,159.82647L640.72902,160.06645L635.20963,161.50632L631.37006,162.46624
				L628.2504,164.38608L626.33061,166.30592L625.37072,176.62504L625.13075,179.02484L624.89077,179.26482L624.6508,179.74478L622.49104,182.62454
				L617.69157,186.70419L611.69224,191.74376L608.81256,195.34346L606.41282,198.22322L604.97298,200.14305L604.01309,201.10297
				L603.29317,202.78283L603.05319,203.26279L601.61335,206.38252L602.33327,215.98171L601.13341,224.381L600.41349,227.74072L603.77311,235.18009
				L604.97298,238.05984L605.21295,238.5398L604.49303,240.69962L604.73301,243.3394L605.45293,245.25923L605.6929,246.93909L606.17285,252.6986
				L606.41282,256.05832L606.65279,257.25822L606.65279,257.4982L606.89277,259.41803L608.57258,260.37795L612.65213,259.89799L
				612.8921,259.89799L617.4516,259.65801L621.77112,261.09789L623.93088,262.53777L624.6508,263.49769L624.6508,266.37744L624.89077,271.17704
				L626.33061,274.05679L626.33061,274.53675L626.81056,275.01671L628.73035,279.33635L629.69024,282.2161L629.69024,284.85588L
				628.97032,286.77572L628.73035,287.49566L622.25107,295.41499L620.33128,297.09484L617.93155,298.29474L615.77178,299.9746L614.81189,301.89444
				L614.09197,302.3744L613.13208,304.29423L613.13208,306.21407L614.57192,308.61387L617.21163,311.01367L617.4516,311.01367L618.89144,311.97358
				L620.57125,312.21356L621.53115,312.45354L621.77112,312.45354L623.45093,313.41346L624.17085,315.3333L624.17085,317.25314L
				622.49104,319.65293L621.0512,321.57277L619.13141,324.93249L619.13141,325.17247L618.65147,325.65243L618.65147,325.89241L617.93155,328.2922
				L620.33128,333.81173L621.53115,336.21153L621.29117,337.41143L620.81123,338.13137L619.85133,338.61133L616.4917,340.53117L
				615.53181,342.69098L615.77178,343.17094L616.01176,344.37084L618.65147,347.01062L626.09064,350.37033L629.2103,351.57023L630.41016,352.77013
				L630.65014,354.21001L629.93022,355.16993L622.49104,354.21001L622.25107,354.21001L619.61136,353.25009L615.77178,352.77013
				L614.09197,353.01011L613.13208,353.01011L611.69224,353.49007L611.45226,355.64989L611.21229,358.04968L611.21229,359.0096L
				610.49237,365.48905L610.73234,368.12883L611.21229,369.32873L611.45226,369.08875L611.93221,369.80869L613.37205,369.56871L
				614.57192,368.60879L615.77178,366.68895L616.25173,365.96901L617.93155,365.72903L618.65147,365.96901L619.13141,367.88885L
				617.93155,372.92842L611.45226,383.00757L610.97232,383.72751L609.77245,384.20747L610.01242,384.20747L610.97232,388.28712L
				612.8921,392.60676L613.13208,394.04663L609.77245,396.44643L609.53248,396.68641L608.33261,396.68641L607.37272,397.64633L606.89277,398.84623
				L607.13274,399.32619L606.89277,399.32619L607.85266,401.96596L609.05253,404.60574L609.2925,405.80564L602.33327,406.04562L
				599.21362,406.2856L596.57391,407.24552L595.85399,407.96546L596.81388,409.16535L602.57325,411.56515L606.89277,412.76505L611.93221,413.24501
				L613.852,413.96495L614.57192,414.68489L613.61202,415.64481L610.2524,417.08468L601.37338,419.00452L597.29383,419.48448L595.85399,419.96444
				L595.37404,421.16434L596.57391,422.36424L597.05386,423.32416L599.21362,425.00401L599.93354,425.48397L601.61335,427.16383
				L601.13341,432.44338L601.13341,434.12324L601.61335,435.08316L601.61335,435.56312L602.33327,437.96292L604.01309,440.36271
				L605.6929,442.76251L605.6929,443.00249L603.77311,445.64227L601.85333,448.04206L601.13341,449.48194L601.13341,450.68184L601.37338,450.68184
				L601.37338,451.1618L603.05319,452.60168L605.21295,453.32162L606.89277,453.80157L608.81256,454.76149L611.21229,456.44135L
				612.17218,457.88123L611.93221,460.52101L610.73234,463.88072L610.73234,464.1207L608.33261,468.20036L607.85266,469.88021L608.33261,470.60015
				L608.81256,471.32009L610.97232,475.39975L619.61136,483.55905L622.01109,486.19883L625.85067,502.75743L626.81056,505.63719
				L627.29051,507.07706L628.2504,508.75692L630.41016,509.95682L633.52982,509.95682L637.60937,510.43678L638.32929,510.67676L
				640.24907,511.3967L641.44894,513.07656L641.68891,515.47635L640.24907,520.27595L639.52915,521.23586L637.84934,523.63566L636.64947,526.7554
				L636.4095,529.15519L638.08931,530.59507L639.52915,530.59507L642.16886,531.31501L643.12875,531.55499L644.80857,533.23485L
				645.28851,535.39467L646.00843,538.75438L646.72836,541.15418L648.40817,552.19324L651.04788,559.15265L653.68758,562.03241L
				655.3674,563.95225L663.76647,567.55194L664.72636,568.0319L668.32596,569.95174L670.7257,571.39162L671.20564,572.8315L667.1261,578.11105
				L666.40618,579.07097L663.28652,583.15062L663.76647,584.83048L668.08599,588.91013L672.40551,589.87005L673.84535,590.35001
				L681.04455,590.58999L682.96434,591.06995L685.36408,591.54991L688.00378,595.14961L688.00378,597.5494L688.00378,599.46924L
				685.84402,603.06894L685.1241,603.54889L677.9249,607.38857L677.68493,607.86853L676.24509,610.02835L676.72503,612.18816L677.20498,613.38806
				L681.04455,615.78786L679.12477,616.74778L676.96501,618.66761L676.00511,621.30739L674.08532,622.26731L671.20564,623.70719
				L667.60604,625.62703L665.68626,626.58694L664.48639,627.30688L662.32663,626.34696L658.72703,623.46721L656.80724,621.54737
				L652.96766,620.34747L650.56793,618.42763L649.84801,614.58796L648.1682,613.38806L645.04854,610.50831L642.88878,609.06843L
				640.96899,607.62855L640.0091,606.18867L639.28918,604.50881L638.56926,603.06894L636.88945,601.1491L635.20963,598.98928L632.8099,597.78938
				L630.89011,596.10952L628.73035,595.62957L628.49038,593.22977L628.49038,591.30993L627.05054,587.71024L625.61069,585.55042
				L624.41083,583.15062L623.45093,574.99131L622.49104,571.15164L621.77112,568.75184L622.01109,564.67219L620.81123,562.75235
				L618.65147,561.55245L617.21163,561.31247L615.05186,561.79243L612.8921,561.55245L610.73234,560.11257L609.53248,558.67269L
				608.33261,556.99284L608.09264,555.55296L607.85266,553.15316L608.33261,550.27341L608.09264,547.63363L606.65279,545.71379L
				605.6929,543.31399L605.21295,540.43424L603.77311,538.03444L601.37338,536.59456L598.25373,535.39467L595.37404,533.47483L592.01442,531.07503
				L590.3346,530.35509L588.41482,528.43525L586.25505,525.31552L584.81521,522.19578L584.09529,520.03597L583.37537,516.19629L
				582.89543,512.83658L582.41548,510.67676L582.17551,508.75692L582.17551,506.35712L580.73567,504.19731L579.29583,503.23739L
				578.33593,502.03749L578.09596,500.35763L578.09596,498.91775L577.61601,496.75794L575.9362,492.4383L575.69622,489.79853L575.69622,487.15875
				L573.29649,487.87869L572.09662,489.31857L571.61668,488.83861L569.69689,487.63871L569.21694,486.91877L567.05718,483.31908
				L563.21761,478.03952L559.85798,474.19985L552.89875,466.76048L549.05918,462.9208L546.89941,461.24094L546.41947,454.52151L
				543.29981,451.1618L538.98029,447.80208L537.78042,447.32212L533.70088,443.72243L531.06117,441.32263L529.14138,439.40279L527.94151,438.2029
				L521.70221,444.68235L518.1026,448.04206L511.38335,455.24145L507.3038,459.32111L502.50433,455.00147L499.62465,452.3617L494.82518,447.5621
				L493.62532,446.60218L491.22558,443.96241L487.62598,440.60269L484.7463,437.72294L481.86662,435.56312L477.30712,433.4033L474.90739,432.44338
				L476.10726,428.84369L478.50699,425.48397L482.10659,423.08418L484.98627,421.16434L485.46622,420.92436L484.50633,418.28458
				L483.54643,414.92487L482.34657,410.12527L481.86662,407.96546L481.86662,404.12578L481.86662,403.16586L478.74696,406.76556
				L475.14736,409.64531L468.18813,411.32517L462.42877,410.12527L457.6293,406.04562L454.50965,402.20594L454.0297,398.36627L449.95015,394.04663
				L444.91071,388.28712L442.51098,383.48753L440.35122,378.92791L438.19146,374.3683L437.23156,370.04867L436.27167,367.16891L
				434.35188,364.76911L430.99225,362.84928L426.91271,361.16942L423.07313,359.0096L418.75361,357.32974L416.1139,356.12984L412.75428,356.12984
				L410.83449,356.12984L407.71483,356.6098L401.7155,359.72954L399.31576,361.88936L399.31576,361.64938L395.95614,358.28966L381.07778,350.61031
				L380.83781,350.37033L379.87792,349.41041L376.27832,344.37084L376.51829,338.61133L376.51829,338.37135L378.67805,334.29169
				L379.158,333.0918L381.31776,329.01214L382.99757,325.89241L385.15733,321.81275L386.59717,319.17297L388.03701,316.77318L395.23622,303.33432
				L397.87592,298.53472L398.59584,297.5748L400.7556,292.77521L402.67539,287.0157L402.67539,286.77572L402.67539,286.53574L402.43542,284.6159
				L402.19544,282.2161L400.7556,273.33686L400.03568,269.73716L398.59584,263.01773L398.1159,260.13797L398.83582,255.0984L403.87526,250.77877
				L406.99491,249.09891L413.71417,245.49921L418.03369,243.3394L421.63329,240.69962L424.99292,235.90003L425.95281,232.30033L
				426.19279,229.18059L426.43276,222.22118L420.91337,213.82189L409.15467,197.2633L403.39531,190.54387L400.7556,187.42413L400.51563,185.98425
				L400.03568,182.14458L399.79571,180.46472L399.31576,175.66513L399.31576,174.94519L399.31576,173.02535L401.47552,168.70572
				L403.15534,166.5459L406.27499,162.46624L406.75494,162.22626L408.19478,160.78639L412.27433,158.14661L414.19412,156.94671L
				414.91404,156.94671L418.27366,157.66665L424.273,157.18669L425.95281,156.46675L428.11257,154.30693L430.03236,152.3871L430.99225,151.90714
				L432.19212,148.7874L433.15202,146.62758L433.63196,142.06797L438.6714,142.06797L447.31045,141.58801L452.82984,140.14813L454.74962,137.26838
				L455.94949,133.90866L456.18946,134.14864L460.98893,135.34854L466.02837,135.10856L467.94816,135.58852L470.58787,135.10856
				L473.46755,134.86858L476.34723,135.58852L478.98694,137.74834L481.86662,139.66817L486.90606,142.78791L488.3459,141.58801L
				486.42611,134.14864L488.58587,130.54895L485.94617,125.50937L480.66675,119.50988L477.78707,115.19025L475.38734,110.39065L
				474.42744,107.03094L474.90739,103.9112L475.62731,100.07153L477.06715,95.03195L478.02704,91.43226L479.22691,90.23236L481.38667,88.79248
				L486.90606,85.43277L492.66542,81.59309L492.66542,80.39319L491.70553,77.75342L493.14537,72.23388L493.38534,72.23388L493.86529,72.23388
				L494.10526,72.23388L501.78441,71.03399L508.74364,70.55403L512.34324,71.51394L513.06316,71.75392L514.02306,71.9939L515.22292,72.71384
				L519.30247,75.11364L525.30181,75.11364L528.18149,75.83358L529.8613,75.11364L531.30114,75.11364L531.54112,74.3937L532.02106,74.15372
				L533.70088,74.15372L535.38069,74.63368L538.50034,75.5936L542.33992,76.07356L544.01973,74.87366L545.69955,73.67376L547.61933,71.75392
				L548.33925,69.59411L549.7791,65.99441L550.97896,63.11466L551.69888,62.39472L552.65878,61.67478L555.05851,60.47488L556.9783,60.2349
				L557.93819,60.71486L560.33793,61.67478L561.29782,61.67478L562.49769,61.91476L565.85731,60.2349L568.01707,59.51496L572.3366,59.75494
				L573.29649,59.75494z"/>
		</g>
		<g id="Kabupaten1">
			<path clip-path="url(#SVG_CP_1)" fill="none" stroke="#646464" stroke-width="1.91979" stroke-miterlimit="10" stroke-linecap="round" stroke-linejoin="round" d="
				M568.01707,59.51496L565.85731,60.2349L562.49769,61.91476L561.29782,61.67478L560.33793,61.67478L557.93819,60.71486L556.9783,60.2349
				L555.05851,60.47488L552.65878,61.67478L551.69888,62.39472L550.97896,63.11466L549.7791,65.99441L548.33925,69.59411L547.61933,71.75392
				L545.69955,73.67376L544.01973,74.87366L542.33992,76.07356L538.50034,75.5936L535.38069,74.63368L533.70088,74.15372L532.02106,74.15372
				L531.54112,74.3937L531.30114,75.11364L529.8613,75.11364L528.18149,75.83358L525.30181,75.11364L519.30247,75.11364L515.22292,72.71384
				L514.02306,71.9939L513.06316,71.75392L512.34324,71.51394L508.74364,70.55403L501.78441,71.03399L494.10526,72.23388L493.86529,72.23388
				L493.38534,72.23388L493.14537,72.23388L491.70553,77.75342L492.66542,80.39319L492.66542,81.59309L486.90606,85.43277L481.38667,88.79248
				L479.22691,90.23236L478.02704,91.43226L477.06715,95.03195L475.62731,100.07153L474.90739,103.9112L474.42744,107.03094L475.38734,110.39065
				L477.78707,115.19025L480.66675,119.50988L485.94617,125.50937L488.58587,130.54895L486.42611,134.14864L488.3459,141.58801L
				486.90606,142.78791L481.86662,139.66817L478.98694,137.74834L476.34723,135.58852L473.46755,134.86858L470.58787,135.10856L
				467.94816,135.58852L466.02837,135.10856L460.98893,135.34854L456.18946,134.14864L455.94949,133.90866L454.74962,137.26838L
				452.82984,140.14813L447.31045,141.58801L438.6714,142.06797L433.63196,142.06797L433.15202,146.62758L432.19212,148.7874L430.99225,151.90714
				L430.03236,152.3871L428.11257,154.30693L425.95281,156.46675L424.273,157.18669L418.27366,157.66665L414.91404,156.94671L414.19412,156.94671
				L412.27433,158.14661L408.19478,160.78639L406.75494,162.22626L406.27499,162.46624L403.15534,166.5459L401.47552,168.70572L
				399.31576,173.02535L399.31576,174.94519L399.31576,175.66513L399.79571,180.46472L400.03568,182.14458L400.51563,185.98425L
				400.7556,187.42413L403.39531,190.54387L409.15467,197.2633L420.91337,213.82189L426.43276,222.22118L426.19279,229.18059L425.95281,232.30033
				L424.99292,235.90003L421.63329,240.69962L418.03369,243.3394L413.71417,245.49921L406.99491,249.09891L403.87526,250.77877L
				398.83582,255.0984L398.1159,260.13797L398.59584,263.01773L400.03568,269.73716L400.7556,273.33686L402.19544,282.2161L402.43542,284.6159
				L402.67539,286.53574L402.67539,286.77572L402.67539,287.0157L400.7556,292.77521L398.59584,297.5748L397.87592,298.53472L395.23622,303.33432
				L388.03701,316.77318L386.59717,319.17297L385.15733,321.81275L382.99757,325.89241L381.31776,329.01214L379.158,333.0918L378.67805,334.29169
				L376.51829,338.37135L376.51829,338.61133L376.27832,344.37084L379.87792,349.41041L380.83781,350.37033L381.07778,350.61031
				L395.95614,358.28966L399.31576,361.64938L399.31576,361.88936L399.79571,365.96901L399.79571,366.20899L400.03568,367.16891
				L400.7556,369.80869L400.51563,371.00859L397.156,372.44846L394.99624,378.20798L393.31643,388.28712L393.31643,389.96698L393.31643,393.3267
				L393.5564,398.36627L392.35653,402.92588L390.67672,409.88529L389.9568,412.76505L387.79704,421.6443L385.87725,431.0035L383.71749,439.16281
				L382.99757,441.32263L382.7576,442.76251L381.7977,444.92233L380.11789,450.20188L376.99824,456.68133L374.83848,460.52101L369.79903,468.44033
				L366.19943,474.67981L364.51962,478.99944L361.63994,484.51897L360.92002,488.59863L360.44007,492.67828L360.2001,495.31806L
				360.2001,497.95784L360.2001,498.19782L361.63994,500.59761L369.07911,506.35712L370.51895,507.797L373.15866,509.47686L375.31842,510.91674
				L375.79837,513.07656L375.31842,517.87615L374.35853,520.75591L371.95879,524.11562L370.27898,526.7554L367.15933,530.35509L
				361.87991,538.99436L359.72015,543.07402L358.28031,545.47381L358.04034,545.47381L356.84047,547.87361L355.40063,549.79345L
				353.72081,550.99334L347.96145,550.51339L344.12188,550.75337L338.12254,550.27341L332.84313,549.79345L332.12321,549.79345L
				331.16331,551.23332L330.20342,552.6732L326.84379,571.87158L326.84379,579.79091L327.08377,586.03038L327.32374,588.67015L331.40329,595.62957
				L336.6827,601.62906L342.92201,606.42865L344.60183,609.54839L344.8418,611.7082L344.8418,611.94818L345.08177,611.94818L347.24153,613.38806
				L347.24153,615.78786L344.8418,619.86751L342.68204,624.42713L339.56238,627.78684L334.28297,635.70617L332.12321,638.10597L
				331.16331,639.78583L328.04366,644.8254L325.16398,649.62499L323.72414,652.74473L323.48416,653.94463L322.04432,661.14402L319.40462,672.66304
				L318.6847,676.26274L316.76491,679.86243L312.92533,687.3018L310.76557,690.42154L305.96611,698.10089L304.04632,700.98064L297.56704,706.50018
				L292.52759,708.89997L291.80767,709.13995L286.76823,711.77973L281.72879,714.41951L276.92932,717.29926L273.32972,719.45908
				L272.36983,720.17902L270.45004,723.77871L269.97009,726.17851L270.21007,726.65847L271.40993,728.57831L271.64991,728.81829
				L275.00953,732.41798L275.48948,732.89794L276.2094,734.33782L278.12919,738.89743L278.60914,739.85735L280.52892,743.45705L
				284.60847,748.25664L287.24818,750.65644L291.08775,751.85634L302.84645,750.89642L311.24552,750.65644L311.72547,750.65644L
				316.52494,750.65644L317.24486,750.65644L318.44472,750.17648L327.56371,746.3368L326.60382,749.21656L326.36385,749.45654L324.20408,751.37638
				L320.12454,753.53619L312.20541,758.09581L306.926,761.93548L303.80634,764.33528L303.56637,764.57526L301.64658,766.97506L297.56704,774.65441
				L296.84712,776.57424L295.1673,779.93396L294.20741,781.61382L293.96743,782.33376L293.48749,783.53365L291.32773,789.77313L
				291.32773,790.49306L289.64791,796.0126L289.64791,796.73254L289.16797,805.13183L289.16797,805.61178L289.40794,809.69144L289.16797,811.61128
				L288.44805,814.01107L286.76823,816.17089L286.04831,816.65085L282.44871,819.05065L278.60914,821.9304L277.1693,823.85024L276.2094,825.29012
				L275.24951,827.92989L275.00953,832.00955L275.72945,833.92939L277.40927,835.84922L280.04898,838.96896L281.48882,840.16886
				L283.16863,841.60874L284.3685,842.56866L286.28829,844.24851L287.00821,844.96845L287.24818,845.20843L290.12786,848.80813L
				290.36783,849.52807L291.32773,851.68788L293.48749,856.00752L293.96743,857.20742L294.20741,857.68738L294.68735,858.64729L
				296.36717,863.68687L298.7669,871.6062L302.12653,876.88575L303.3264,878.08565L304.04632,879.04557L309.80568,882.1653L315.56504,885.52502
				L327.32374,892.48443L334.76292,896.08412L335.00289,895.12421L336.6827,893.44435L339.08244,890.80457L347.00156,883.3652L358.76026,873.76601
				L366.91935,865.84668L374.83848,858.40731L379.158,854.08768L393.79638,868.0065L396.19611,870.16632L396.43608,870.4063L399.07579,872.32614
				L403.39531,875.44587L408.9147,880.72542L412.99425,884.32512L414.67406,885.28504L414.91404,885.28504L418.99358,888.64475L
				420.91337,892.72441L425.47287,898.24394L430.51231,903.76347L412.75428,932.32106L413.71417,932.80101L422.83316,936.40071L
				432.4321,938.56053L444.91071,940.24038L447.79039,939.04049L448.51031,935.68077L449.23023,932.32106L445.15069,931.12116L443.2309,930.88118
				L445.63063,922.48189L449.23023,914.32258L451.86994,907.12319L454.0297,906.88321L455.70952,906.16327L458.10925,899.44384L
				458.82917,896.56408L461.22891,889.36469L465.30845,891.04455L468.66808,892.00447L471.30779,884.80508L471.54776,884.32512L
				480.1868,863.20691L487.38601,863.20691L507.06383,863.20691L504.66409,868.24648L500.82452,873.52603L497.46489,878.56561L499.62465,880.24546
				L506.58388,883.3652L513.30314,887.92481L525.54178,891.76449L522.18215,896.3241L517.62266,900.88372L513.30314,906.64323L509.94351,911.92278
				L509.46356,912.64272L511.62332,912.64272L512.58322,912.16276L529.14138,905.92329L531.78109,904.96337L539.94019,901.60366
				L545.93952,898.96388L549.29915,897.76398L550.25904,897.04404L550.01907,891.04455L548.8192,886.9649L548.57923,885.04506L549.29915,885.04506
				L553.3787,884.5651L554.81854,884.80508L556.0184,884.5651L563.21761,884.5651L564.89742,884.80508L572.09662,886.00498L572.81654,886.24496
				L576.89609,886.72492L585.53513,887.92481L589.85466,888.40477L596.57391,889.12471L603.77311,888.88473L608.57258,889.36469
				L612.65213,890.32461L613.852,890.80457L615.05186,891.04455L616.97165,891.28453L617.21163,891.28453L618.41149,891.76449L619.13141,891.76449
				L623.45093,892.48443L623.93088,892.48443L629.93022,893.44435L635.68958,894.40427L636.64947,894.88423L639.52915,895.36418
				L647.68825,900.64374L649.60804,902.08362L653.20764,904.00345L656.32729,904.00345L661.84668,904.00345L664.00644,903.52349
				L671.68559,902.56358L677.68493,902.3236L678.16487,902.3236L680.08466,902.3236L688.96368,902.08362L692.56328,902.08362L693.2832,902.08362
				L693.2832,901.84364L699.28253,901.84364L700.24243,901.60366L706.00179,900.16378L709.84136,902.3236L718.72038,905.44333L720.16022,906.40325
				L720.40019,906.64323L720.64017,906.64323L722.08001,908.80305L723.51985,911.92278L723.51985,913.36266L724.71972,913.84262
				L724.95969,914.32258L727.35942,915.52248L729.27921,911.92278L729.75916,908.08311L729.51918,906.64323L727.35942,904.72339
				L722.55995,902.3236L717.04057,900.16378L714.88081,899.44384L712.96102,898.00396L711.52118,896.3241L709.60139,893.68433L708.6415,890.80457
				L707.44163,885.04506L706.48174,882.1653L705.28187,880.00549L704.32197,878.32563L701.92224,876.40579L696.8828,873.28605L691.12344,870.4063
				L689.92357,869.44638L687.28386,867.76652L684.40418,864.40681L682.96434,861.52705L680.32463,856.72746L678.64482,853.12776
				L677.68493,851.20792L677.44495,850.24801L676.72503,848.80813L676.00511,846.64831L675.52517,844.96845L674.3253,838.72898L
				674.80524,831.76957L674.80524,827.68992L675.52517,822.65034L675.52517,822.41036L675.52517,821.69042L676.00511,820.97048L
				676.96501,818.33071L679.36474,816.17089L679.84469,815.69093L683.20431,813.29113L685.84402,811.13132L690.64349,806.09174L
				692.80325,803.69195L693.2832,802.97201L696.16288,799.37231L699.04256,797.69246L703.12211,797.45248L707.44163,797.45248L710.56128,796.73254
				L714.16088,795.29266L716.08067,792.17292L716.80059,789.77313L716.80059,789.53315L714.40086,784.73355L712.2411,778.73406L
				712.48107,777.0542L713.20099,776.33426L713.20099,775.8543L715.8407,772.01463L716.80059,771.29469L717.76049,769.85481L721.84003,763.85532
				L722.31998,760.97556L721.12011,758.57577L708.6415,753.05623L707.92158,752.3363L706.24176,751.85634L705.28187,749.69652L704.80192,748.49662
				L704.56195,748.25664L704.56195,748.01666L704.80192,747.29672L705.28187,744.41697L706.72171,742.25715L707.44163,741.77719
				L708.16155,740.33731L711.76115,734.5778L711.76115,732.41798L710.80126,728.57831L702.64216,718.49916L701.68227,716.09936L
				700.4824,714.41951L699.04256,712.25969L699.04256,710.57983L700.4824,708.65999L705.0419,706.74016L707.20166,705.54026L707.6816,705.30028
				L710.56128,703.14046L717.28054,698.34087L718.96035,696.18105L719.20033,692.82134L713.20099,685.14199L707.20166,678.42255
				L705.76182,676.98268L705.0419,676.50272L699.28253,671.70312L696.64283,667.38349L696.40285,666.90353L695.20299,664.74371L
				694.72304,661.86396L694.96301,661.384L696.64283,658.74422L698.08267,657.54432L700.24243,655.38451L702.88213,653.70465L707.6816,649.38501
				L709.36142,646.74524L709.36142,644.34544L708.16155,641.46568L707.20166,640.26579L705.76182,638.58593L701.68227,636.66609
				L699.52251,636.18613L693.76314,635.94615L689.44362,635.22621L686.32397,633.0664L685.36408,632.82642L684.40418,630.42662L
				686.084,625.867L687.28386,621.06741L687.04389,619.86751L687.04389,619.62753L682.72437,616.98776L681.04455,615.78786L677.20498,613.38806
				L676.72503,612.18816L676.24509,610.02835L677.68493,607.86853L677.9249,607.38857L685.1241,603.54889L685.84402,603.06894L688.00378,599.46924
				L688.00378,597.5494L688.00378,595.14961L685.36408,591.54991L682.96434,591.06995L681.04455,590.58999L673.84535,590.35001L
				672.40551,589.87005L668.08599,588.91013L663.76647,584.83048L663.28652,583.15062L666.40618,579.07097L667.1261,578.11105L671.20564,572.8315
				L670.7257,571.39162L668.32596,569.95174L664.72636,568.0319L663.76647,567.55194L655.3674,563.95225L653.68758,562.03241L651.04788,559.15265
				L648.40817,552.19324L646.72836,541.15418L646.00843,538.75438L645.28851,535.39467L644.80857,533.23485L643.12875,531.55499
				L642.16886,531.31501L639.52915,530.59507L638.08931,530.59507L636.4095,529.15519L636.64947,526.7554L637.84934,523.63566L639.52915,521.23586
				L640.24907,520.27595L641.68891,515.47635L641.44894,513.07656L640.24907,511.3967L638.32929,510.67676L637.60937,510.43678L
				633.52982,509.95682L630.41016,509.95682L628.2504,508.75692L627.29051,507.07706L626.81056,505.63719L625.85067,502.75743L622.01109,486.19883
				L619.61136,483.55905L610.97232,475.39975L608.81256,471.32009L608.33261,470.60015L607.85266,469.88021L608.33261,468.20036
				L610.73234,464.1207L610.73234,463.88072L611.93221,460.52101L612.17218,457.88123L611.21229,456.44135L608.81256,454.76149L
				606.89277,453.80157L605.21295,453.32162L603.05319,452.60168L601.37338,451.1618L601.37338,450.68184L601.13341,450.68184L601.13341,449.48194
				L601.85333,448.04206L603.77311,445.64227L605.6929,443.00249L605.6929,442.76251L604.01309,440.36271L602.33327,437.96292L601.61335,435.56312
				L601.61335,435.08316L601.13341,434.12324L601.13341,432.44338L601.61335,427.16383L599.93354,425.48397L599.21362,425.00401
				L597.05386,423.32416L596.57391,422.36424L595.37404,421.16434L595.85399,419.96444L597.29383,419.48448L601.37338,419.00452
				L610.2524,417.08468L613.61202,415.64481L614.57192,414.68489L613.852,413.96495L611.93221,413.24501L606.89277,412.76505L602.57325,411.56515
				L596.81388,409.16535L595.85399,407.96546L596.57391,407.24552L599.21362,406.2856L602.33327,406.04562L609.2925,405.80564L609.05253,404.60574
				L607.85266,401.96596L606.89277,399.32619L607.13274,399.32619L606.89277,398.84623L607.37272,397.64633L608.33261,396.68641
				L609.53248,396.68641L609.77245,396.44643L613.13208,394.04663L612.8921,392.60676L610.97232,388.28712L610.01242,384.20747L
				609.77245,384.20747L610.97232,383.72751L611.45226,383.00757L617.93155,372.92842L619.13141,367.88885L618.65147,365.96901L
				617.93155,365.72903L616.25173,365.96901L615.77178,366.68895L614.57192,368.60879L613.37205,369.56871L611.93221,369.80869L
				611.45226,369.08875L611.21229,369.32873L610.73234,368.12883L610.49237,365.48905L611.21229,359.0096L611.21229,358.04968L611.45226,355.64989
				L611.69224,353.49007L613.13208,353.01011L614.09197,353.01011L615.77178,352.77013L619.61136,353.25009L622.25107,354.21001
				L622.49104,354.21001L629.93022,355.16993L630.65014,354.21001L630.41016,352.77013L629.2103,351.57023L626.09064,350.37033L
				618.65147,347.01062L616.01176,344.37084L615.77178,343.17094L615.53181,342.69098L616.4917,340.53117L619.85133,338.61133L620.81123,338.13137
				L621.29117,337.41143L621.53115,336.21153L620.33128,333.81173L617.93155,328.2922L618.65147,325.89241L618.65147,325.65243L
				619.13141,325.17247L619.13141,324.93249L621.0512,321.57277L622.49104,319.65293L624.17085,317.25314L624.17085,315.3333L623.45093,313.41346
				L621.77112,312.45354L621.53115,312.45354L620.57125,312.21356L618.89144,311.97358L617.4516,311.01367L617.21163,311.01367L
				614.57192,308.61387L613.13208,306.21407L613.13208,304.29423L614.09197,302.3744L614.81189,301.89444L615.77178,299.9746L617.93155,298.29474
				L620.33128,297.09484L622.25107,295.41499L628.73035,287.49566L628.97032,286.77572L629.69024,284.85588L629.69024,282.2161L
				628.73035,279.33635L626.81056,275.01671L626.33061,274.53675L626.33061,274.05679L624.89077,271.17704L624.6508,266.37744L624.6508,263.49769
				L623.93088,262.53777L621.77112,261.09789L617.4516,259.65801L612.8921,259.89799L612.65213,259.89799L608.57258,260.37795L606.89277,259.41803
				L606.65279,257.4982L606.65279,257.25822L606.41282,256.05832L606.17285,252.6986L605.6929,246.93909L605.45293,245.25923L604.73301,243.3394
				L604.49303,240.69962L605.21295,238.5398L604.97298,238.05984L603.77311,235.18009L600.41349,227.74072L601.13341,224.381L602.33327,215.98171
				L601.61335,206.38252L603.05319,203.26279L603.29317,202.78283L604.01309,201.10297L604.97298,200.14305L606.41282,198.22322
				L608.81256,195.34346L611.69224,191.74376L617.69157,186.70419L622.49104,182.62454L624.6508,179.74478L624.89077,179.26482L
				625.13075,179.02484L625.37072,176.62504L626.33061,166.30592L628.2504,164.38608L631.37006,162.46624L635.20963,161.50632L640.72902,160.06645
				L640.72902,159.82647L625.85067,148.54742L625.13075,148.06746L607.13274,134.86858L604.73301,132.94874L600.41349,128.14915
				L597.53381,124.78943L595.85399,121.90968L593.69423,114.23033L593.21428,110.87061L594.17418,106.07102L594.65412,104.87112
				L595.85399,100.55149L596.09396,98.87163L596.33394,97.67173L597.77378,87.83256L597.29383,87.3526L598.97365,84.23287L600.65346,79.19329
				L602.57325,74.63368L604.49303,70.31405L604.97298,68.63419L598.4937,66.95433L594.8941,66.23439L593.9342,65.99441L588.65479,64.07457
				L586.97497,63.59462L586.735,63.35464L584.09529,62.6347L573.29649,59.75494L572.3366,59.75494L568.01707,59.51496"/>
			<path clip-path="url(#SVG_CP_1)" fill="none" stroke="#646464" stroke-width="1.91979" stroke-miterlimit="10" stroke-linecap="round" stroke-linejoin="round" d="
				M573.29649,59.75494L584.09529,62.6347L586.735,63.35464L586.97497,63.59462L588.65479,64.07457L593.9342,65.99441L594.8941,66.23439
				L598.4937,66.95433L604.97298,68.63419L604.49303,70.31405L602.57325,74.63368L600.65346,79.19329L598.97365,84.23287L597.29383,87.3526
				L597.77378,87.83256L596.33394,97.67173L596.09396,98.87163L595.85399,100.55149L594.65412,104.87112L594.17418,106.07102L593.21428,110.87061
				L593.69423,114.23033L595.85399,121.90968L597.53381,124.78943L600.41349,128.14915L604.73301,132.94874L607.13274,134.86858
				L625.13075,148.06746L625.85067,148.54742L640.72902,159.82647L640.72902,160.06645L635.20963,161.50632L631.37006,162.46624
				L628.2504,164.38608L626.33061,166.30592L625.37072,176.62504L625.13075,179.02484L624.89077,179.26482L624.6508,179.74478L622.49104,182.62454
				L617.69157,186.70419L611.69224,191.74376L608.81256,195.34346L606.41282,198.22322L604.97298,200.14305L604.01309,201.10297
				L603.29317,202.78283L603.05319,203.26279L601.61335,206.38252L602.33327,215.98171L601.13341,224.381L600.41349,227.74072L603.77311,235.18009
				L604.97298,238.05984L605.21295,238.5398L604.49303,240.69962L604.73301,243.3394L605.45293,245.25923L605.6929,246.93909L606.17285,252.6986
				L606.41282,256.05832L606.65279,257.25822L606.65279,257.4982L606.89277,259.41803L608.57258,260.37795L612.65213,259.89799L
				612.8921,259.89799L617.4516,259.65801L621.77112,261.09789L623.93088,262.53777L624.6508,263.49769L624.6508,266.37744L624.89077,271.17704
				L626.33061,274.05679L626.33061,274.53675L626.81056,275.01671L628.73035,279.33635L629.69024,282.2161L629.69024,284.85588L
				628.97032,286.77572L628.73035,287.49566L622.25107,295.41499L620.33128,297.09484L617.93155,298.29474L615.77178,299.9746L614.81189,301.89444
				L614.09197,302.3744L613.13208,304.29423L613.13208,306.21407L614.57192,308.61387L617.21163,311.01367L617.4516,311.01367L618.89144,311.97358
				L620.57125,312.21356L621.53115,312.45354L621.77112,312.45354L623.45093,313.41346L624.17085,315.3333L624.17085,317.25314L
				622.49104,319.65293L621.0512,321.57277L619.13141,324.93249L619.13141,325.17247L618.65147,325.65243L618.65147,325.89241L617.93155,328.2922
				L620.33128,333.81173L621.53115,336.21153L621.29117,337.41143L620.81123,338.13137L619.85133,338.61133L616.4917,340.53117L
				615.53181,342.69098L615.77178,343.17094L616.01176,344.37084L618.65147,347.01062L626.09064,350.37033L629.2103,351.57023L630.41016,352.77013
				L630.65014,354.21001L629.93022,355.16993L622.49104,354.21001L622.25107,354.21001L619.61136,353.25009L615.77178,352.77013
				L614.09197,353.01011L613.13208,353.01011L611.69224,353.49007L611.45226,355.64989L611.21229,358.04968L611.21229,359.0096L
				610.49237,365.48905L610.73234,368.12883L611.21229,369.32873L611.45226,369.08875L611.93221,369.80869L613.37205,369.56871L
				614.57192,368.60879L615.77178,366.68895L616.25173,365.96901L617.93155,365.72903L618.65147,365.96901L619.13141,367.88885L
				617.93155,372.92842L611.45226,383.00757L610.97232,383.72751L609.77245,384.20747L610.01242,384.20747L610.97232,388.28712L
				612.8921,392.60676L613.13208,394.04663L609.77245,396.44643L609.53248,396.68641L608.33261,396.68641L607.37272,397.64633L606.89277,398.84623
				L607.13274,399.32619L606.89277,399.32619L607.85266,401.96596L609.05253,404.60574L609.2925,405.80564L602.33327,406.04562L
				599.21362,406.2856L596.57391,407.24552L595.85399,407.96546L596.81388,409.16535L602.57325,411.56515L606.89277,412.76505L611.93221,413.24501
				L613.852,413.96495L614.57192,414.68489L613.61202,415.64481L610.2524,417.08468L601.37338,419.00452L597.29383,419.48448L595.85399,419.96444
				L595.37404,421.16434L596.57391,422.36424L597.05386,423.32416L599.21362,425.00401L599.93354,425.48397L601.61335,427.16383
				L601.13341,432.44338L601.13341,434.12324L601.61335,435.08316L601.61335,435.56312L602.33327,437.96292L604.01309,440.36271
				L605.6929,442.76251L605.6929,443.00249L603.77311,445.64227L601.85333,448.04206L601.13341,449.48194L601.13341,450.68184L601.37338,450.68184
				L601.37338,451.1618L603.05319,452.60168L605.21295,453.32162L606.89277,453.80157L608.81256,454.76149L611.21229,456.44135L
				612.17218,457.88123L611.93221,460.52101L610.73234,463.88072L610.73234,464.1207L608.33261,468.20036L607.85266,469.88021L608.33261,470.60015
				L608.81256,471.32009L610.97232,475.39975L619.61136,483.55905L622.01109,486.19883L625.85067,502.75743L626.81056,505.63719
				L627.29051,507.07706L628.2504,508.75692L630.41016,509.95682L633.52982,509.95682L637.60937,510.43678L638.32929,510.67676L
				640.24907,511.3967L641.44894,513.07656L641.68891,515.47635L640.24907,520.27595L639.52915,521.23586L637.84934,523.63566L636.64947,526.7554
				L636.4095,529.15519L638.08931,530.59507L639.52915,530.59507L642.16886,531.31501L643.12875,531.55499L644.80857,533.23485L
				645.28851,535.39467L646.00843,538.75438L646.72836,541.15418L648.40817,552.19324L651.04788,559.15265L653.68758,562.03241L
				655.3674,563.95225L663.76647,567.55194L664.72636,568.0319L668.32596,569.95174L670.7257,571.39162L671.20564,572.8315L667.1261,578.11105
				L666.40618,579.07097L663.28652,583.15062L663.76647,584.83048L668.08599,588.91013L672.40551,589.87005L673.84535,590.35001
				L681.04455,590.58999L682.96434,591.06995L685.36408,591.54991L688.00378,595.14961L688.00378,597.5494L688.00378,599.46924L
				685.84402,603.06894L685.1241,603.54889L677.9249,607.38857L677.68493,607.86853L676.24509,610.02835L676.72503,612.18816L677.20498,613.38806
				L681.04455,615.78786L682.72437,616.98776L687.04389,619.62753L687.04389,619.86751L687.28386,621.06741L686.084,625.867L684.40418,630.42662
				L685.36408,632.82642L686.32397,633.0664L689.44362,635.22621L693.76314,635.94615L699.52251,636.18613L701.68227,636.66609L
				705.76182,638.58593L707.20166,640.26579L708.16155,641.46568L709.36142,644.34544L709.36142,646.74524L707.6816,649.38501L702.88213,653.70465
				L700.24243,655.38451L698.08267,657.54432L696.64283,658.74422L694.96301,661.384L694.72304,661.86396L695.20299,664.74371L696.40285,666.90353
				L696.64283,667.38349L699.28253,671.70312L705.0419,676.50272L705.76182,676.98268L707.20166,678.42255L713.20099,685.14199L
				719.20033,692.82134L718.96035,696.18105L717.28054,698.34087L710.56128,703.14046L707.6816,705.30028L707.20166,705.54026L705.0419,706.74016
				L700.4824,708.65999L699.04256,710.57983L699.04256,712.25969L700.4824,714.41951L701.68227,716.09936L702.64216,718.49916L710.80126,728.57831
				L711.76115,732.41798L711.76115,734.5778L708.16155,740.33731L707.44163,741.77719L706.72171,742.25715L705.28187,744.41697L
				704.80192,747.29672L704.56195,748.01666L704.56195,748.25664L704.80192,748.49662L705.28187,749.69652L706.24176,751.85634L
				707.92158,752.3363L708.6415,753.05623L721.12011,758.57577L722.31998,760.97556L721.84003,763.85532L717.76049,769.85481L716.80059,771.29469
				L715.8407,772.01463L713.20099,775.8543L713.20099,776.33426L712.48107,777.0542L712.2411,778.73406L714.40086,784.73355L716.80059,789.53315
				L716.80059,789.77313L716.08067,792.17292L714.16088,795.29266L710.56128,796.73254L707.44163,797.45248L703.12211,797.45248
				L699.04256,797.69246L696.16288,799.37231L693.2832,802.97201L692.80325,803.69195L690.64349,806.09174L685.84402,811.13132L
				683.20431,813.29113L679.84469,815.69093L679.36474,816.17089L676.96501,818.33071L676.00511,820.97048L675.52517,821.69042L
				675.52517,822.41036L675.52517,822.65034L674.80524,827.68992L674.80524,831.76957L674.3253,838.72898L675.52517,844.96845L676.00511,846.64831
				L676.72503,848.80813L677.44495,850.24801L677.68493,851.20792L678.64482,853.12776L680.32463,856.72746L682.96434,861.52705
				L684.40418,864.40681L687.28386,867.76652L689.92357,869.44638L691.12344,870.4063L696.8828,873.28605L701.92224,876.40579L704.32197,878.32563
				L705.28187,880.00549L706.48174,882.1653L707.44163,885.04506L708.6415,890.80457L709.60139,893.68433L711.52118,896.3241L712.96102,898.00396
				L714.88081,899.44384L717.04057,900.16378L722.55995,902.3236L727.35942,904.72339L729.51918,906.64323L729.75916,908.08311L
				729.27921,911.92278L727.35942,915.52248L724.95969,914.32258L724.71972,913.84262L723.51985,913.36266L723.51985,911.92278L
				722.08001,908.80305L720.64017,906.64323L720.40019,906.64323L720.16022,906.40325L718.72038,905.44333L709.84136,902.3236L706.00179,900.16378
				L700.24243,901.60366L699.28253,901.84364L693.2832,901.84364L693.2832,902.08362L692.56328,902.08362L688.96368,902.08362L680.08466,902.3236
				L678.16487,902.3236L677.68493,902.3236L671.68559,902.56358L664.00644,903.52349L661.84668,904.00345L656.32729,904.00345L653.20764,904.00345
				L649.60804,902.08362L647.68825,900.64374L639.52915,895.36418L636.64947,894.88423L635.68958,894.40427L629.93022,893.44435
				L623.93088,892.48443L623.45093,892.48443L619.13141,891.76449L618.41149,891.76449L617.21163,891.28453L616.97165,891.28453
				L615.05186,891.04455L613.852,890.80457L612.65213,890.32461L608.57258,889.36469L603.77311,888.88473L596.57391,889.12471L589.85466,888.40477
				L585.53513,887.92481L576.89609,886.72492L572.81654,886.24496L572.09662,886.00498L564.89742,884.80508L563.21761,884.5651L
				556.0184,884.5651L554.81854,884.80508L553.3787,884.5651L549.29915,885.04506L548.57923,885.04506L548.8192,886.9649L550.01907,891.04455
				L550.25904,897.04404L549.29915,897.76398L545.93952,898.96388L539.94019,901.60366L531.78109,904.96337L529.14138,905.92329
				L512.58322,912.16276L511.62332,912.64272L509.46356,912.64272L509.94351,911.92278L513.30314,906.64323L517.62266,900.88372
				L522.18215,896.3241L525.54178,891.76449L513.30314,887.92481L506.58388,883.3652L499.62465,880.24546L497.46489,878.56561L500.82452,873.52603
				L504.66409,868.24648L507.06383,863.20691L487.38601,863.20691L480.1868,863.20691L471.54776,884.32512L471.30779,884.80508L
				468.66808,892.00447L465.30845,891.04455L461.22891,889.36469L458.82917,896.56408L458.10925,899.44384L455.70952,906.16327L
				454.0297,906.88321L451.86994,907.12319L449.23023,914.32258L445.63063,922.48189L443.2309,930.88118L445.15069,931.12116L449.23023,932.32106
				L448.51031,935.68077L447.79039,939.04049L444.91071,940.24038L432.4321,938.56053L422.83316,936.40071L413.71417,932.80101L
				412.75428,932.32106L430.51231,903.76347L425.47287,898.24394L420.91337,892.72441L418.99358,888.64475L414.91404,885.28504L
				414.67406,885.28504L412.99425,884.32512L408.9147,880.72542L403.39531,875.44587L399.07579,872.32614L396.43608,870.4063L396.19611,870.16632
				L393.79638,868.0065L379.158,854.08768L374.83848,858.40731L366.91935,865.84668L358.76026,873.76601L347.00156,883.3652L339.08244,890.80457
				L336.6827,893.44435L335.00289,895.12421L334.76292,896.08412L327.32374,892.48443L315.56504,885.52502L309.80568,882.1653L304.04632,879.04557
				L303.3264,878.08565L302.12653,876.88575L298.7669,871.6062L296.36717,863.68687L294.68735,858.64729L294.20741,857.68738L293.96743,857.20742
				L293.48749,856.00752L291.32773,851.68788L290.36783,849.52807L290.12786,848.80813L287.24818,845.20843L287.00821,844.96845
				L286.28829,844.24851L284.3685,842.56866L283.16863,841.60874L281.48882,840.16886L280.04898,838.96896L277.40927,835.84922L
				275.72945,833.92939L275.00953,832.00955L275.24951,827.92989L276.2094,825.29012L277.1693,823.85024L278.60914,821.9304L282.44871,819.05065
				L286.04831,816.65085L286.76823,816.17089L288.44805,814.01107L289.16797,811.61128L289.40794,809.69144L289.16797,805.61178
				L289.16797,805.13183L289.64791,796.73254L289.64791,796.0126L291.32773,790.49306L291.32773,789.77313L293.48749,783.53365L
				293.96743,782.33376L294.20741,781.61382L295.1673,779.93396L296.84712,776.57424L297.56704,774.65441L301.64658,766.97506L303.56637,764.57526
				L303.80634,764.33528L306.926,761.93548L312.20541,758.09581L320.12454,753.53619L324.20408,751.37638L326.36385,749.45654L326.60382,749.21656
				L327.56371,746.3368L318.44472,750.17648L317.24486,750.65644L316.52494,750.65644L311.72547,750.65644L311.24552,750.65644L
				302.84645,750.89642L291.08775,751.85634L287.24818,750.65644L284.60847,748.25664L280.52892,743.45705L278.60914,739.85735L
				278.12919,738.89743L276.2094,734.33782L275.48948,732.89794L275.00953,732.41798L271.64991,728.81829L271.40993,728.57831L270.21007,726.65847
				L269.97009,726.17851L270.45004,723.77871L272.36983,720.17902L273.32972,719.45908L276.92932,717.29926L281.72879,714.41951
				L286.76823,711.77973L291.80767,709.13995L292.52759,708.89997L297.56704,706.50018L304.04632,700.98064L305.96611,698.10089
				L310.76557,690.42154L312.92533,687.3018L316.76491,679.86243L318.6847,676.26274L319.40462,672.66304L322.04432,661.14402L323.48416,653.94463
				L323.72414,652.74473L325.16398,649.62499L328.04366,644.8254L331.16331,639.78583L332.12321,638.10597L334.28297,635.70617L
				339.56238,627.78684L342.68204,624.42713L344.8418,619.86751L347.24153,615.78786L347.24153,613.38806L345.08177,611.94818L344.8418,611.94818
				L344.8418,611.7082L344.60183,609.54839L342.92201,606.42865L336.6827,601.62906L331.40329,595.62957L327.32374,588.67015L327.08377,586.03038
				L326.84379,579.79091L326.84379,571.87158L330.20342,552.6732L331.16331,551.23332L332.12321,549.79345L332.84313,549.79345L
				338.12254,550.27341L344.12188,550.75337L347.96145,550.51339L353.72081,550.99334L355.40063,549.79345L356.84047,547.87361L
				358.04034,545.47381L358.28031,545.47381L359.72015,543.07402L361.87991,538.99436L367.15933,530.35509L370.27898,526.7554L371.95879,524.11562
				L374.35853,520.75591L375.31842,517.87615L375.79837,513.07656L375.31842,510.91674L373.15866,509.47686L370.51895,507.797L369.07911,506.35712
				L361.63994,500.59761L360.2001,498.19782L360.2001,497.95784L360.2001,495.31806L360.44007,492.67828L360.92002,488.59863L361.63994,484.51897
				L364.51962,478.99944L366.19943,474.67981L369.79903,468.44033L374.83848,460.52101L376.99824,456.68133L380.11789,450.20188
				L381.7977,444.92233L382.7576,442.76251L382.99757,441.32263L383.71749,439.16281L385.87725,431.0035L387.79704,421.6443L389.9568,412.76505
				L390.67672,409.88529L392.35653,402.92588L393.5564,398.36627L393.31643,393.3267L393.31643,389.96698L393.31643,388.28712L394.99624,378.20798
				L397.156,372.44846L400.51563,371.00859L400.7556,369.80869L400.03568,367.16891L399.79571,366.20899L399.79571,365.96901L399.31576,361.88936
				L399.31576,361.64938L395.95614,358.28966L381.07778,350.61031L380.83781,350.37033L379.87792,349.41041L376.27832,344.37084
				L376.51829,338.61133L376.51829,338.37135L378.67805,334.29169L379.158,333.0918L381.31776,329.01214L382.99757,325.89241L385.15733,321.81275
				L386.59717,319.17297L388.03701,316.77318L395.23622,303.33432L397.87592,298.53472L398.59584,297.5748L400.7556,292.77521L402.67539,287.0157
				L402.67539,286.77572L402.67539,286.53574L402.43542,284.6159L402.19544,282.2161L400.7556,273.33686L400.03568,269.73716L398.59584,263.01773
				L398.1159,260.13797L398.83582,255.0984L403.87526,250.77877L406.99491,249.09891L413.71417,245.49921L418.03369,243.3394L421.63329,240.69962
				L424.99292,235.90003L425.95281,232.30033L426.19279,229.18059L426.43276,222.22118L420.91337,213.82189L409.15467,197.2633L
				403.39531,190.54387L400.7556,187.42413L400.51563,185.98425L400.03568,182.14458L399.79571,180.46472L399.31576,175.66513L399.31576,174.94519
				L399.31576,173.02535L401.47552,168.70572L403.15534,166.5459L406.27499,162.46624L406.75494,162.22626L408.19478,160.78639L
				412.27433,158.14661L414.19412,156.94671L414.91404,156.94671L418.27366,157.66665L424.273,157.18669L425.95281,156.46675L428.11257,154.30693
				L430.03236,152.3871L430.99225,151.90714L432.19212,148.7874L433.15202,146.62758L433.63196,142.06797L438.6714,142.06797L447.31045,141.58801
				L452.82984,140.14813L454.74962,137.26838L455.94949,133.90866L456.18946,134.14864L460.98893,135.34854L466.02837,135.10856
				L467.94816,135.58852L470.58787,135.10856L473.46755,134.86858L476.34723,135.58852L478.98694,137.74834L481.86662,139.66817
				L486.90606,142.78791L488.3459,141.58801L486.42611,134.14864L488.58587,130.54895L485.94617,125.50937L480.66675,119.50988L
				477.78707,115.19025L475.38734,110.39065L474.42744,107.03094L474.90739,103.9112L475.62731,100.07153L477.06715,95.03195L478.02704,91.43226
				L479.22691,90.23236L481.38667,88.79248L486.90606,85.43277L492.66542,81.59309L492.66542,80.39319L491.70553,77.75342L493.14537,72.23388
				L493.38534,72.23388L493.86529,72.23388L494.10526,72.23388L501.78441,71.03399L508.74364,70.55403L512.34324,71.51394L513.06316,71.75392
				L514.02306,71.9939L515.22292,72.71384L519.30247,75.11364L525.30181,75.11364L528.18149,75.83358L529.8613,75.11364L531.30114,75.11364
				L531.54112,74.3937L532.02106,74.15372L533.70088,74.15372L535.38069,74.63368L538.50034,75.5936L542.33992,76.07356L544.01973,74.87366
				L545.69955,73.67376L547.61933,71.75392L548.33925,69.59411L549.7791,65.99441L550.97896,63.11466L551.69888,62.39472L552.65878,61.67478
				L555.05851,60.47488L556.9783,60.2349L557.93819,60.71486L560.33793,61.67478L561.29782,61.67478L562.49769,61.91476L565.85731,60.2349
				L568.01707,59.51496L572.3366,59.75494L573.29649,59.75494"/>
		</g>
		<g id="Other">
			<path clip-path="url(#SVG_CP_1)" fill="none" stroke="#000000" stroke-width="0.95989" stroke-miterlimit="10" stroke-linecap="round" stroke-linejoin="round" d="
				M0,999.75535L0,0L999.72925,0L999.72925,999.75535L0,999.75535z"/>
		</g>
	</g>
</svg>
