<svg width="615" height="1176" viewBox="0 0 615 1176" fill="none" xmlns="http://www.w3.org/2000/svg">
<path fill-rule="evenodd" clip-rule="evenodd" d="M97.6293 781.734L102.429 783.014L106.908 782.374L112.028 782.694L116.827 783.974L118.747 786.853L119.707 791.333V794.853L118.747 799.972V804.772L121.947 806.692L125.146 807.652L128.346 809.252L133.145 811.171L130.586 818.851H130.906L136.025 820.771L143.384 823.33L149.784 825.57L148.824 829.41L152.023 830.05L157.463 831.33L159.702 828.77L163.862 824.29L166.742 820.771L171.541 816.291L174.101 813.731L177.62 810.532L180.5 807.652L185.94 813.091L189.459 816.291L193.619 821.091L197.138 825.25L198.738 827.81L201.618 831.65L202.578 836.129L202.898 838.689V843.169L209.937 845.089L212.177 846.048L216.656 847.328L220.496 848.608L225.295 849.888L226.575 846.368L229.135 836.769L231.055 831.33L233.294 824.61L235.534 818.851H238.414L243.533 818.531L249.292 817.891L253.772 816.611L258.571 815.651L264.331 814.371L268.17 813.731L273.93 812.451L280.969 811.811L284.489 810.851L290.568 809.892L296.647 808.292L303.686 807.332L310.086 806.052L314.565 805.092L321.604 803.812L328.644 802.532L332.163 801.572L338.563 800.292L347.522 798.372L353.601 797.093L365.76 793.893L371.839 792.613L385.597 789.093L389.117 789.413L400.316 792.293L406.715 795.173L408.315 795.813L408.635 795.493L410.875 797.413L414.074 800.612L416.954 804.772L420.154 808.932L425.273 817.251L428.473 821.731L435.192 833.25L436.152 832.93L438.712 831.97L441.271 831.33L444.151 830.69L447.99 830.05L450.55 829.73L454.39 829.41L458.869 829.09L458.549 826.85L457.909 823.01L456.949 815.971V813.411L456.31 808.292L455.35 804.452L459.509 803.172L462.709 802.212L465.909 801.252L468.148 800.292L467.188 798.692L466.228 797.093L465.589 796.133L463.989 795.173L462.389 794.213L461.109 793.573L459.829 793.253L458.549 792.933L457.589 792.613L457.269 791.973V790.373H460.149L463.669 790.693L465.909 790.373H469.428L471.988 790.053L474.868 789.733H475.827V791.333L476.787 791.973L477.747 792.613H478.707L480.627 792.933L482.547 793.893L484.786 795.813L487.346 801.892L487.986 804.132L488.946 806.052L490.546 808.292L491.506 810.532V812.131L493.105 814.371L495.025 814.691L496.945 815.651L498.545 817.891L499.505 820.131L500.145 822.37L500.785 823.65L503.024 823.97L504.944 823.65L507.504 823.01L509.744 822.37L511.343 822.05L513.263 822.37L515.183 824.29L516.783 825.89L518.703 827.17L519.663 827.81H520.942L522.222 827.17H523.182H524.462L526.382 827.81L527.982 828.13L529.901 829.09L532.461 830.05L534.381 831.33L536.621 832.61L537.581 833.89L537.901 835.169L536.621 836.769L535.341 839.009L535.021 840.929V843.169L535.981 844.129L537.581 845.409L540.14 846.048L542.7 847.008H543.98L545.58 845.729L546.86 844.129L548.139 843.809L549.419 844.449L550.699 845.729L551.659 847.648L552.299 849.568L551.659 851.808L551.019 853.088L549.739 854.368L548.459 855.008L546.54 856.288L543.98 857.887L542.06 858.847L539.82 860.447L538.86 861.087L539.18 862.367L540.46 862.687L543.02 863.967L544.94 866.527L546.54 869.087L546.86 871.966V874.526L546.22 877.726L545.9 879.006L544.94 879.326L543.98 878.686H543.66L543.02 879.646L541.74 881.245L540.14 883.165L539.18 884.445L538.22 886.685L536.941 887.645L534.701 887.325L533.741 887.645L532.141 888.285L530.221 888.925L529.261 889.565L528.302 890.845L527.982 893.404L527.662 895.324L527.342 896.924L526.702 897.564L524.462 898.524L522.222 899.804L519.663 902.044L518.383 903.644V905.243L519.343 907.803L520.622 908.763L520.942 910.043L520.622 911.963L519.983 914.523L518.703 916.442L518.063 918.362L518.383 920.282L519.663 921.242L521.902 921.882L524.142 922.202L526.062 922.522L528.622 922.842L530.221 923.802L531.821 926.362L532.781 927.642L534.701 930.201L538.86 924.442L542.38 919.002L545.9 911.963L547.819 907.803L551.659 899.804L554.219 895.644L557.738 887.965L559.018 884.445L559.658 882.205V875.166V871.006L559.338 863.647L559.658 859.487L560.298 855.328L561.578 851.488V846.368L560.938 839.009L559.338 834.209L556.778 825.25L554.859 820.131L553.579 815.331L569.577 810.851L569.897 811.491L573.417 817.251L581.096 823.65L582.056 824.29L583.975 826.21L591.975 835.169L599.974 845.409L599.654 849.888L597.414 852.768L588.455 859.167L584.615 862.047L583.975 862.367L581.096 863.967L575.016 866.527L573.097 869.087V871.326L575.016 874.206L576.616 876.446L577.896 879.646L588.775 893.084L590.055 898.204V901.084L585.255 908.763L584.295 910.683L583.335 911.323L581.416 914.203L580.776 918.042L580.456 919.002V919.322L580.776 919.642L581.416 921.242L582.696 924.122L584.935 924.762L585.895 925.722L602.533 933.081L604.133 936.281L603.493 940.121L598.054 948.12L596.774 950.04L595.494 951L591.975 956.119V956.759L591.015 957.719L590.695 959.959L593.574 967.958L596.774 974.358V974.678L595.814 977.877L593.254 982.037L588.455 983.957L584.295 984.917H578.536L573.097 985.237L569.257 987.477L565.417 992.276L564.778 993.236L561.898 996.436L555.499 1003.16L551.979 1006.03L547.499 1009.23L546.86 1009.87L543.66 1012.75L542.38 1016.27L541.74 1017.23V1018.19V1018.51L540.78 1025.23V1030.67L540.14 1039.95L541.74 1048.27L542.38 1050.51L543.34 1053.39L544.3 1055.31L544.62 1056.59L545.9 1059.15L548.139 1063.95L551.659 1070.35L553.579 1074.19L557.418 1078.67L560.938 1080.91L562.538 1082.19L570.217 1086.03L576.936 1090.19L580.136 1092.75L581.416 1094.99L583.016 1097.87L584.295 1101.71L585.895 1109.39L587.175 1113.23L589.735 1116.75L591.655 1118.99L594.214 1120.91L597.094 1121.87L604.453 1124.74L610.852 1127.94L613.732 1130.5L614.052 1132.42L613.412 1137.54L610.852 1142.34L607.653 1140.74L607.333 1140.1L605.733 1139.46V1137.54L603.813 1133.38L601.893 1130.5H601.573L601.254 1130.18L599.334 1128.9L587.495 1124.74L582.376 1121.87L574.696 1123.78L573.417 1124.1H565.417V1124.42H564.458H559.658L547.819 1124.74H545.26H544.62L536.621 1125.06L526.382 1126.34L523.502 1126.98H516.143H511.983L507.184 1124.42L504.624 1122.51L493.745 1115.47L489.906 1114.83L488.626 1114.19L480.947 1112.91L472.948 1111.63H472.308L466.548 1110.67H465.589L463.989 1110.03H463.669L461.109 1109.71L459.509 1109.39L457.909 1108.75L452.47 1107.47L446.071 1106.83L436.472 1107.15L427.513 1106.19L421.753 1105.55L410.235 1103.95L404.795 1103.31L403.835 1102.99L394.236 1101.39L391.997 1101.07H382.398L380.798 1101.39L378.878 1101.07L373.439 1101.71H372.479L372.799 1104.27L374.399 1109.71L374.719 1117.71L373.439 1118.67L368.959 1120.27L360.96 1123.78L350.081 1128.26L346.562 1129.54L324.484 1137.86L323.204 1138.5H320.325L320.965 1137.54L325.444 1130.5L331.203 1122.83L337.283 1116.75L341.762 1110.67L325.444 1105.55L316.485 1099.47L307.206 1095.31L304.326 1093.07L308.806 1086.35L313.925 1079.31L317.125 1072.59H290.888H281.289L269.77 1100.75L269.45 1101.39L265.931 1110.99L261.451 1109.71L256.012 1107.47L252.812 1117.07L251.852 1120.91L248.653 1129.86L246.413 1130.82L243.533 1131.14L240.014 1140.74L235.214 1151.62L232.014 1162.82L234.574 1163.14L240.014 1164.74L239.054 1169.22L238.094 1173.7L234.254 1175.3L217.616 1173.06L204.817 1170.18L192.659 1165.38L191.379 1164.74L215.056 1126.66L208.337 1119.31L202.258 1111.95L199.698 1106.51L194.259 1102.03H193.939L191.699 1100.75L186.259 1095.95L178.9 1088.91L173.141 1084.75L169.621 1082.19L169.301 1081.87L166.102 1078.99L146.584 1060.43L140.825 1066.19L130.266 1076.11L119.387 1086.67L103.709 1099.47L93.1498 1109.39L89.9502 1112.91L87.7104 1115.15L87.3904 1116.43L77.4715 1111.63L61.7933 1102.35L54.1141 1097.87L46.435 1093.71L45.4751 1092.43L43.8752 1090.83L39.3958 1083.79L36.1961 1073.23L33.9563 1066.51L33.3164 1065.23L32.9965 1064.59L32.3565 1062.99L29.4768 1057.23L28.197 1054.35L27.877 1053.39L24.0374 1048.59L23.7175 1048.27L22.7576 1047.31L20.1979 1045.07L18.5981 1043.79L16.3583 1041.87L14.4385 1040.27L10.9189 1036.11L8.67916 1033.55L7.71924 1030.99L8.03923 1025.55L9.31909 1022.03L10.599 1020.11L12.5187 1017.55L17.6381 1013.71L22.4376 1010.51L23.3975 1009.87L25.6373 1006.99L26.5972 1003.8L26.9171 1001.24L26.5972 995.796V995.156L27.2371 983.957V982.997L29.4768 975.637V974.678L32.3565 966.358L32.9965 964.758L33.3164 963.799L34.5963 961.559L36.836 957.079L37.7959 954.519L43.2353 944.28L45.795 941.08L46.115 940.76L50.2745 937.561L57.3138 932.441L67.8726 926.362L73.312 923.482L76.1917 920.922L76.5116 920.602L77.7915 916.762L65.6329 921.882L64.033 922.522H63.0731H56.6738H56.0339L44.8351 922.842L29.1569 924.122L24.0374 922.522L20.5178 919.322L15.0785 912.923L12.5187 908.123L11.8788 906.843L9.31909 900.764L8.35917 898.844L7.71924 898.204L3.23975 893.404L2.9198 893.084L1.31999 890.525L1 889.885L1.63993 886.685L4.19967 881.885L5.47949 880.926L10.279 878.046L16.6783 874.206L23.3975 870.686L30.1168 867.167L31.0767 866.847L37.7959 863.647L46.435 856.288L48.9947 852.448L55.394 842.209L58.2736 838.049L63.3931 828.13L65.9528 823.33L66.9127 818.531L70.4323 803.172L72.3521 793.573L72.6721 791.973L74.5918 787.813L78.4314 781.414L82.5909 774.695L86.7505 776.934L90.91 778.534L97.6293 781.734Z" fill="#FEFEE9" stroke="#646464" stroke-width="0.639933" stroke-miterlimit="10" stroke-linecap="round" stroke-linejoin="round"/>
<path fill-rule="evenodd" clip-rule="evenodd" d="M257.612 468.48L265.291 470.08L274.57 467.84L279.37 464.001L283.529 459.201V460.481V465.601L284.169 468.48L285.769 474.88L287.049 479.359L288.329 482.879L287.689 483.199L283.849 485.759L279.05 488.959L275.85 493.438L274.25 498.238L277.45 499.518L283.529 502.398L287.369 505.277L291.208 509.117L296.008 513.597L299.207 517.116L300.807 518.396L307.207 524.796L311.046 528.315L317.445 534.075L322.885 528.635L331.844 519.036L336.643 514.557L344.962 505.917L346.562 507.517L349.122 510.077L352.641 513.277L358.081 518.076L359.681 518.716L365.44 523.196L369.6 527.675L370.24 536.635L373.119 538.874L378.239 543.994L387.518 553.913L391.997 559.033L397.117 566.072L399.996 570.872L400.636 571.832L403.196 573.432L403.836 574.071L405.436 572.152L408.635 571.192V574.711L408.955 578.231L411.195 583.991L411.835 586.87V588.79L412.155 591.03L413.435 592.63L415.355 593.91L417.274 596.79V599.989L417.594 602.549L418.234 605.429L418.874 609.908L419.834 615.028L420.794 617.908L422.714 622.067L425.593 626.227L428.153 628.787L430.393 629.747L434.872 632.947L438.712 635.506L442.871 637.106L446.071 639.026L447.991 642.226L448.631 646.065L449.911 649.265L451.831 651.825L452.15 655.345L451.511 659.184L451.831 662.384L452.15 664.304L453.75 666.544L455.35 668.463L458.23 670.383L461.109 670.703L463.989 670.063L465.909 670.383L468.789 671.983L470.388 674.543L470.068 679.983L471.028 683.182L472.308 688.302L473.588 699.181L475.188 702.381L477.108 705.26L479.027 710.06V712.62L479.347 715.82L482.227 716.459L484.787 718.699L487.987 720.299L490.226 723.179L492.466 725.739L493.426 727.658L494.386 729.898L495.666 731.818L498.225 733.738L501.105 735.658L505.265 739.497L507.504 741.097L508.464 746.217L511.664 748.777L516.783 750.377L519.343 752.936L524.143 756.776L527.022 758.056L528.622 757.096L531.182 755.816L535.981 753.256L539.821 751.337L542.38 750.057L543.66 746.537L546.54 743.977L549.1 742.697L551.339 744.297L557.099 747.817V748.137L557.419 749.737L555.819 756.136L553.579 762.216L554.859 765.415L556.139 765.735L560.298 768.615L566.058 769.575L573.737 769.895L576.617 770.535L582.056 773.095L583.976 775.335L585.256 776.934L586.856 780.774V783.974L584.616 787.493L578.217 793.253L574.697 795.493L571.817 798.372L569.897 799.972L567.658 803.492L567.338 804.132L567.978 807.972L569.577 810.851L553.579 815.331L554.859 820.131L556.779 825.25L559.339 834.21L560.938 839.009L561.578 846.368V851.488L560.298 855.328L559.659 859.487L559.339 863.647L559.659 871.006V875.166V882.205L559.019 884.445L557.739 887.965L554.219 895.644L551.659 899.804L547.82 907.803L545.9 911.963L542.38 919.002L538.861 924.442L534.701 930.201L532.782 927.642L531.822 926.362L530.222 923.802L528.622 922.842L526.062 922.522L524.143 922.202L521.903 921.882L519.663 921.242L518.383 920.282L518.063 918.362L518.703 916.443L519.983 914.523L520.623 911.963L520.943 910.043L520.623 908.763L519.343 907.803L518.383 905.243V903.644L519.663 902.044L522.223 899.804L524.462 898.524L526.702 897.564L527.342 896.924L527.662 895.324L527.982 893.405L528.302 890.845L529.262 889.565L530.222 888.925L532.142 888.285L533.741 887.645L534.701 887.325L536.941 887.645L538.221 886.685L539.181 884.445L540.141 883.165L541.741 881.245L543.02 879.646L543.66 878.686H543.98L544.94 879.326L545.9 879.006L546.22 877.726L546.86 874.526V871.966L546.54 869.087L544.94 866.527L543.02 863.967L540.461 862.687L539.181 862.367L538.861 861.087L539.821 860.447L542.061 858.847L543.98 857.887L546.54 856.288L548.46 855.008L549.74 854.368L551.02 853.088L551.659 851.808L552.299 849.568L551.659 847.648L550.7 845.729L549.42 844.449L548.14 843.809L546.86 844.129L545.58 845.729L543.98 847.008H542.701L540.141 846.048L537.581 845.409L535.981 844.129L535.021 843.169V840.929L535.341 839.009L536.621 836.769L537.901 835.169L537.581 833.89L536.621 832.61L534.381 831.33L532.462 830.05L529.902 829.09L527.982 828.13L526.382 827.81L524.462 827.17H523.183H522.223L520.943 827.81H519.663L518.703 827.17L516.783 825.89L515.183 824.29L513.264 822.37L511.344 822.05L509.744 822.37L507.504 823.01L504.945 823.65L503.025 823.97L500.785 823.65L500.145 822.37L499.505 820.131L498.545 817.891L496.946 815.651L495.026 814.691L493.106 814.371L491.506 812.131V810.532L490.546 808.292L488.946 806.052L487.987 804.132L487.347 801.892L484.787 795.813L482.547 793.893L480.627 792.933L478.708 792.613H477.748L476.788 791.973L475.828 791.333V789.733H474.868L471.988 790.053L469.429 790.373H465.909L463.669 790.693L460.15 790.373H457.27V791.973L457.59 792.613L458.55 792.933L459.83 793.253L461.109 793.573L462.389 794.213L463.989 795.173L465.589 796.133L466.229 797.093L467.189 798.693L468.149 800.292L465.909 801.252L462.709 802.212L459.51 803.172L455.35 804.452L456.31 808.292L456.95 813.411V815.971L457.91 823.01L458.55 826.85L458.87 829.09L454.39 829.41L450.551 829.73L447.991 830.05L444.151 830.69L441.272 831.33L438.712 831.97L436.152 832.93L435.192 833.25L428.473 821.731L425.273 817.251L420.154 808.932L416.954 804.772L414.075 800.612L410.875 797.413L408.635 795.493L408.315 795.813L406.716 795.173L400.316 792.293L389.117 789.413L385.598 789.093L371.839 792.613L365.76 793.893L353.601 797.093L347.522 798.372L338.563 800.292L332.164 801.572L328.644 802.532L321.605 803.812L314.566 805.092L310.086 806.052L303.687 807.332L296.648 808.292L290.568 809.892L284.489 810.851L280.969 811.811L273.93 812.451L268.171 813.731L264.331 814.371L258.572 815.651L253.772 816.611L249.293 817.891L243.534 818.531L238.414 818.851H235.534L233.295 824.61L231.055 831.33L229.135 836.769L226.575 846.368L225.296 849.888L220.496 848.608L216.657 847.328L212.177 846.048L209.937 845.089L202.898 843.169V838.689L202.578 836.129L201.618 831.65L198.739 827.81L197.139 825.25L193.619 821.091L189.46 816.291L185.94 813.091L180.501 807.652L177.621 810.532L174.101 813.731L171.542 816.291L166.742 820.771L163.862 824.29L159.703 828.77L157.463 831.33L152.024 830.05L148.824 829.41L149.784 825.57L143.385 823.33L136.025 820.771L130.906 818.851H130.586L133.146 811.171L128.346 809.252L125.147 807.652L121.947 806.692L118.747 804.772V799.972L119.707 794.853V791.333L118.747 786.853L116.828 783.974L112.028 782.694L106.909 782.374L102.429 783.014L97.6297 781.734L90.9105 778.534L86.7509 776.934L82.5914 774.695L83.8713 772.455L86.7509 769.255L93.7902 758.696L97.9497 754.216L100.829 748.137L104.029 742.697V739.497L101.149 737.578H100.829V737.258L100.509 734.378L98.2697 730.218L89.9506 723.819L82.9114 715.82L77.472 706.54L77.152 703.021L76.832 694.701V684.142L81.3116 658.544L82.5914 656.625L83.8713 654.705H84.8312L91.8704 655.345L99.8695 655.985L104.989 655.665L112.668 656.305L114.908 654.705L116.828 652.145L118.427 648.945H118.747L120.667 645.745L123.547 640.306L130.586 628.787L134.746 623.987L136.985 620.468L140.185 615.988L141.465 612.148L142.105 605.749L141.465 602.869L138.585 600.949L135.066 598.709L133.146 596.79L123.227 589.11L121.307 585.91V585.591V582.071L121.627 578.551L122.267 573.112L123.227 567.672L127.066 560.313L129.306 554.553L134.106 546.234L140.825 535.675L143.705 530.555L147.864 521.916L150.104 514.877L151.384 511.997L151.704 510.077L152.664 507.197L155.543 496.318L158.103 483.839L160.983 472L161.943 468.16L164.182 458.881L165.782 452.802L165.462 446.082V441.603V439.363L167.702 425.924L170.582 418.245L175.061 416.325L175.381 414.725L174.421 411.205L174.101 409.925V409.605L173.461 404.166L176.661 401.286L184.66 397.126L188.82 396.487H191.379H195.859L199.378 398.086L205.138 400.326L210.257 403.206L215.697 405.446L220.176 408.006L222.736 411.205L224.016 415.045L225.296 420.804L228.175 426.884L231.055 432.963L234.255 439.363L240.974 447.042L246.413 452.802L247.053 457.921L251.213 463.041L257.612 468.48Z" fill="#FEFEE9" stroke="#646464" stroke-width="0.639933" stroke-miterlimit="10" stroke-linecap="round" stroke-linejoin="round"/>
<path fill-rule="evenodd" clip-rule="evenodd" d="M405.435 1.31997L419.833 5.15965L423.353 6.11957L423.673 6.43954L425.913 7.07948L432.952 9.63926L434.232 9.95924L439.031 10.9192L447.67 13.159L447.03 15.3988L444.471 21.1583L441.911 27.2378L439.671 33.9572L437.431 38.1169L438.071 38.7568L436.152 51.8757L435.832 53.4756L435.512 55.7154L433.912 61.4749L433.272 63.0747L431.992 69.4742L432.632 73.9538L435.512 84.193L437.751 88.0326L441.591 92.5123L447.35 98.9117L450.55 101.471L474.547 119.07L475.507 119.71L495.345 134.749V135.069L487.986 136.988L482.866 138.268L478.707 140.828L476.147 143.388L474.867 157.147L474.547 160.347L474.227 160.666L473.907 161.306L471.028 165.146L464.629 170.586L456.629 177.305L452.79 182.105L449.59 185.944L447.67 188.504L446.39 189.784L445.431 192.024L445.111 192.664L443.191 196.823L444.151 209.622L442.551 220.821L441.591 225.301L446.071 235.22L447.67 239.06L447.99 239.7L447.03 242.58L447.35 246.099L448.31 248.659L448.63 250.899L449.27 258.578L449.59 263.058L449.91 264.658V264.978L450.23 267.537L452.47 268.817L457.909 268.177H458.229L464.309 267.857L470.068 269.777L472.948 271.697L473.907 272.977V276.817L474.227 283.216L476.147 287.056V287.696L476.787 288.336L479.347 294.095L480.627 297.935V301.455L479.667 304.014L479.347 304.974L470.708 315.533L468.148 317.773L464.948 319.373L462.069 321.613L460.789 324.173L459.829 324.813L458.549 327.372V329.932L460.469 333.132L463.989 336.332H464.309L466.228 337.612L468.468 337.931L469.748 338.251H470.068L472.308 339.531L473.268 342.091V344.651L471.028 347.851L469.108 350.41L466.548 354.89V355.21L465.908 355.85V356.17L464.948 359.37L468.148 366.729L469.748 369.929L469.428 371.529L468.788 372.489L467.508 373.129L463.029 375.688L461.749 378.568L462.069 379.208L462.389 380.808L465.908 384.328L475.827 388.807L479.987 390.407L481.587 392.007L481.907 393.927L480.947 395.207L471.028 393.927H470.708L467.188 392.647L462.069 392.007L459.829 392.327H458.549L456.629 392.967L456.309 395.847L455.989 399.046V400.326L455.03 408.965L455.35 412.485L455.989 414.085L456.309 413.765L456.949 414.725L458.869 414.405L460.469 413.125L462.069 410.565L462.709 409.605L464.948 409.285L465.908 409.605L466.548 412.165L464.948 418.885L456.309 432.323L455.669 433.283L454.07 433.923H454.39L455.669 439.363L458.229 445.122L458.549 447.042L454.07 450.242L453.75 450.562H452.15L450.87 451.842L450.23 453.442L450.55 454.082H450.23L451.51 457.601L453.11 461.121L453.43 462.721L444.151 463.041L439.991 463.361L436.472 464.641L435.512 465.601L436.792 467.201L444.471 470.4L450.23 472L456.949 472.64L459.509 473.6L460.469 474.56L459.189 475.84L454.71 477.76L442.871 480.319L437.431 480.959L435.512 481.599L434.872 483.199L436.472 484.799L437.112 486.079L439.991 488.319L440.951 488.959L443.191 491.198L442.551 498.238V500.478L443.191 501.758V502.398L444.151 505.597L446.39 508.797L448.63 511.997V512.317L446.071 515.836L443.511 519.036L442.551 520.956V522.556H442.871V523.196L445.111 525.116L447.99 526.076L450.23 526.716L452.79 527.995L455.989 530.235L457.269 532.155L456.949 535.675L455.35 540.154V540.474L452.15 545.914L451.51 548.154L452.15 549.114L452.79 550.074L455.669 555.513L467.188 566.392L470.388 569.912L475.507 591.99L476.787 595.83L477.427 597.75L478.707 599.989L481.587 601.589H485.746L491.186 602.229L492.145 602.549L494.705 603.509L496.305 605.749L496.625 608.949L494.705 615.348L493.745 616.628L491.506 619.828L489.906 623.987L489.586 627.187L491.825 629.107H493.745L497.265 630.067L498.545 630.387L500.785 632.627L501.424 635.506L502.384 639.986L503.344 643.186L505.584 657.904L509.104 667.184L512.623 671.023L514.863 673.583L526.062 678.383L527.342 679.023L532.141 681.582L535.341 683.502L535.981 685.422L530.541 692.461L529.581 693.741L525.422 699.181L526.062 701.421L531.821 706.86L537.58 708.14L539.5 708.78L549.099 709.1L551.659 709.74L554.858 710.38L558.378 715.18V718.379V720.939L555.498 725.739L554.539 726.379L544.94 731.498L544.62 732.138L542.7 735.018L543.34 737.898L543.98 739.497L549.099 742.697L546.539 743.977L543.66 746.537L542.38 750.057L539.82 751.337L535.981 753.256L531.181 755.816L528.621 757.096L527.022 758.056L524.142 756.776L519.342 752.936L516.783 750.377L511.663 748.777L508.464 746.217L507.504 741.097L505.264 739.497L501.104 735.658L498.225 733.738L495.665 731.818L494.385 729.898L493.425 727.658L492.465 725.739L490.226 723.179L487.986 720.299L484.786 718.699L482.227 716.459L479.347 715.82L479.027 712.62V710.06L477.107 705.26L475.187 702.381L473.587 699.181L472.308 688.302L471.028 683.182L470.068 679.983L470.388 674.543L468.788 671.983L465.908 670.383L463.989 670.063L461.109 670.703L458.229 670.383L455.35 668.464L453.75 666.544L452.15 664.304L451.83 662.384L451.51 659.184L452.15 655.345L451.83 651.825L449.91 649.265L448.63 646.065L447.99 642.226L446.071 639.026L442.871 637.106L438.711 635.506L434.872 632.947L430.392 629.747L428.153 628.787L425.593 626.227L422.713 622.067L420.793 617.908L419.833 615.028L418.874 609.908L418.234 605.429L417.594 602.549L417.274 599.989V596.79L415.354 593.91L413.434 592.63L412.154 591.03L411.834 588.79V586.87L411.194 583.991L408.955 578.231L408.635 574.711V571.192L405.435 572.152L403.835 574.072L403.195 573.432L400.636 571.832L399.996 570.872L397.116 566.072L391.997 559.033L387.517 553.913L378.238 543.994L373.119 538.875L370.239 536.635L369.599 527.675L365.439 523.196L359.68 518.716L358.08 518.076L352.641 513.277L349.121 510.077L346.562 507.517L344.962 505.917L336.643 514.557L331.843 519.036L322.884 528.635L317.445 534.075L311.046 528.315L307.206 524.796L300.807 518.396L299.207 517.116L296.007 513.597L291.208 509.117L287.368 505.277L283.529 502.398L277.449 499.518L274.25 498.238L275.849 493.438L279.049 488.959L283.849 485.759L287.688 483.199L288.328 482.879L287.048 479.359L285.768 474.88L284.168 468.48L283.529 465.601V460.481V459.201L279.369 464.001L274.57 467.841L265.291 470.08L257.611 468.48L251.212 463.041L247.053 457.921L246.413 452.802L240.973 447.042L234.254 439.363L231.054 432.963L228.175 426.884L225.295 420.804L224.015 415.045L222.735 411.205L220.176 408.006L215.696 405.446L210.257 403.206L205.137 400.326L199.378 398.086L195.858 396.487H191.379H188.819L184.66 397.126L176.66 401.286L173.461 404.166V403.846L168.981 399.366L149.143 389.127L148.823 388.807L147.544 387.527L142.744 380.808L143.064 373.129V372.809L145.944 367.369L146.584 365.769L149.463 360.33L151.703 356.17L154.583 350.73L156.503 347.211L158.422 344.011L168.021 326.092L171.541 319.693L172.501 318.413L175.381 312.014L177.94 304.334V304.014V303.694L177.62 301.135L177.3 297.935L175.381 286.096L174.421 281.296L172.501 272.337L171.861 268.497L172.821 261.778L179.54 256.018L183.7 253.779L192.659 248.979L198.418 246.099L203.217 242.58L207.697 236.18L208.977 231.38L209.297 227.221L209.617 217.942L202.258 206.743L186.579 184.664L178.9 175.705L175.381 171.546L175.061 169.626L174.421 164.506L174.101 162.266L173.461 155.867V154.907V152.347L176.34 146.588L178.58 143.708L182.74 138.268L183.38 137.948L185.299 136.029L190.739 132.509L193.299 130.909H194.258L198.738 131.869L206.737 131.229L208.977 130.269L211.856 127.389L214.416 124.83L215.696 124.19L217.296 120.03L218.576 117.15L219.216 111.071H225.935L237.454 110.431L244.813 108.511L247.373 104.671L248.972 100.192L249.292 100.512L255.692 102.111L262.411 101.791L264.971 102.431L268.49 101.791L272.33 101.471L276.169 102.431L279.689 105.311L283.529 107.871L290.248 112.031L292.168 110.431L289.608 100.512L292.488 95.712L288.968 88.9925L281.929 80.9932L278.089 75.2337L274.889 68.8343L273.61 64.3546L274.25 60.195L275.209 55.0754L277.129 48.356L278.409 43.5564L280.009 41.9565L282.889 40.0367L290.248 35.5571L297.927 30.4375V28.8376L296.647 25.3179L298.567 17.9586H298.887H299.527H299.847L310.086 16.3587L319.365 15.7188L324.164 16.9986L325.124 17.3186L326.404 17.6386L328.004 18.5985L333.443 21.7982H341.442L345.282 22.7582L347.521 21.7982H349.441L349.761 20.8383L350.401 20.5183H352.641L354.881 21.1583L359.04 22.4382L364.16 23.0781L366.399 21.4783L368.639 19.8784L371.199 17.3186L372.159 14.4389L374.079 9.63926L375.678 5.7996L376.638 4.83968L377.918 3.87976L381.118 2.27989L383.677 1.95992L384.957 2.59986L388.157 3.87976H389.437L391.037 4.19973L395.516 1.95992L398.396 1L404.155 1.31997H405.435Z" fill="#FEFEE9" stroke="#646464" stroke-width="0.639933" stroke-miterlimit="10" stroke-linecap="round" stroke-linejoin="round"/>
</svg>
