<svg width="64" height="101" viewBox="0 0 64 101" fill="none" xmlns="http://www.w3.org/2000/svg">
<path d="M7.95254 1.55923C8.24328 1.26922 8.58834 1.03936 8.96797 0.882786C9.34761 0.726213 9.75438 0.646 10.165 0.646733H53.915C54.7438 0.646733 55.5387 0.975974 56.1248 1.56202C56.7108 2.14808 57.04 2.94293 57.04 3.77173C57.04 8.02173 54.9025 11.1092 53.0025 13.0155C52.215 13.7967 51.44 14.4155 50.79 14.878V42.5717L51.2775 42.8717C52.5463 43.6655 54.2525 44.8342 55.9713 46.3405C59.29 49.2405 63.29 53.9405 63.29 60.0217C63.29 60.8505 62.9608 61.6454 62.3748 62.2314C61.7887 62.8175 60.9938 63.1467 60.165 63.1467H35.165V91.2717C35.165 92.9967 33.765 100.647 32.04 100.647C30.315 100.647 28.915 92.9967 28.915 91.2717V63.1467H3.91504C3.08624 63.1467 2.29138 62.8175 1.70533 62.2314C1.11928 61.6454 0.790039 60.8505 0.790039 60.0217C0.790039 53.9405 4.79004 49.2405 8.10254 46.3405C9.71941 44.9365 11.4551 43.6755 13.29 42.5717V14.878C12.5019 14.3199 11.7618 13.6969 11.0775 13.0155C9.17754 11.1092 7.04004 8.01548 7.04004 3.77173C7.03931 3.36108 7.11952 2.9543 7.27609 2.57467C7.43266 2.19503 7.66253 1.84998 7.95254 1.55923V1.55923Z" fill="black"/>
</svg>
